<svg width="154" height="42" viewBox="0 0 154 42" fill="none" xmlns="http://www.w3.org/2000/svg">
<path d="M10.248 0.615999C11.368 0.615999 12.3667 0.765332 13.244 1.064C14.14 1.344 14.8867 1.764 15.484 2.324C16.0813 2.884 16.5107 3.57467 16.772 4.396C17.0333 5.19867 17.0987 6.12267 16.968 7.168C16.856 7.97067 16.632 8.77333 16.296 9.576C15.96 10.3787 15.4747 11.1067 14.84 11.76C14.224 12.4133 13.44 12.936 12.488 13.328C11.5547 13.72 10.4253 13.916 9.1 13.916H6.16L5.264 21H2.016L4.508 0.615999H10.248ZM9.436 10.78C10.4253 10.78 11.2093 10.584 11.788 10.192C12.3853 9.8 12.824 9.33333 13.104 8.792C13.384 8.25067 13.5427 7.74667 13.58 7.28C13.636 6.944 13.6267 6.58 13.552 6.188C13.496 5.77733 13.356 5.39467 13.132 5.04C12.908 4.66667 12.572 4.35867 12.124 4.116C11.6947 3.87333 11.1253 3.752 10.416 3.752H7.392L6.524 10.78H9.436ZM12.712 12.712L16.94 21H13.132L8.82 12.796L12.712 12.712ZM22.7332 0.615999H36.2572L35.8932 3.64H25.7292L25.0572 9.24H34.0732L33.7092 12.348H24.6652L23.9932 17.892H34.5492L34.1572 21H20.2412L22.7332 0.615999ZM45.4742 21.784L38.9782 0.615999H42.8702L47.3502 16.52L45.5022 16.128L53.3982 0.615999H57.2342L45.5862 21.784H45.4742ZM68.3032 0.615999H81.8272L81.4632 3.64H71.2992L70.6272 9.24H79.6432L79.2792 12.348H70.2352L69.5632 17.892H80.1192L79.7272 21H65.8112L68.3032 0.615999ZM84.5482 0.727999H88.3562L91.6042 15.148L91.1002 14.924L96.2522 4.9L97.2322 9.324L90.0922 21.952L84.5482 0.727999ZM94.5162 0.727999H97.7642L101.628 14.84L101.012 14.728L107.368 0.727999H110.868L100.284 21.896L94.5162 0.727999Z" fill="#00FFFF" style="mix-blend-mode:multiply"/>
<path d="M50.408 41.728H50.324L36.548 26.524L37.444 26.944L35.792 41H32.488L35.092 19.916H35.232L48.756 35.12L48.056 34.868L49.736 20.616H53.012L50.408 41.728ZM70.7515 41.784L64.2555 20.616H68.1475L72.6275 36.52L70.7795 36.128L78.6755 20.616H82.5115L70.8635 41.784H70.7515ZM85.746 20.616H99.27L98.906 23.64H88.742L88.07 29.24H97.086L96.722 32.348H87.678L87.006 37.892H97.562L97.17 41H83.254L85.746 20.616ZM109.383 20.616C110.503 20.616 111.502 20.7653 112.379 21.064C113.275 21.344 114.022 21.764 114.619 22.324C115.216 22.884 115.646 23.5747 115.907 24.396C116.168 25.1987 116.234 26.1227 116.103 27.168C115.991 27.9707 115.767 28.7733 115.431 29.576C115.095 30.3787 114.61 31.1067 113.975 31.76C113.359 32.4133 112.575 32.936 111.623 33.328C110.69 33.72 109.56 33.916 108.235 33.916H105.295L104.399 41H101.151L103.643 20.616H109.383ZM108.571 30.78C109.56 30.78 110.344 30.584 110.923 30.192C111.52 29.8 111.959 29.3333 112.239 28.792C112.519 28.2507 112.678 27.7467 112.715 27.28C112.771 26.944 112.762 26.58 112.687 26.188C112.631 25.7773 112.491 25.3947 112.267 25.04C112.043 24.6667 111.707 24.3587 111.259 24.116C110.83 23.8733 110.26 23.752 109.551 23.752H106.527L105.659 30.78H108.571ZM111.847 32.712L116.075 41H112.267L107.955 32.796L111.847 32.712ZM131.976 25.124C131.285 24.6947 130.539 24.3213 129.736 24.004C128.933 23.6867 128.159 23.5093 127.412 23.472C126.833 23.4533 126.329 23.5093 125.9 23.64C125.489 23.752 125.135 23.92 124.836 24.144C124.556 24.368 124.341 24.6293 124.192 24.928C124.043 25.2267 123.949 25.5533 123.912 25.908C123.875 26.4307 124.024 26.9067 124.36 27.336C124.715 27.7653 125.191 28.1573 125.788 28.512C126.385 28.848 127.02 29.1653 127.692 29.464C128.457 29.8 129.195 30.2107 129.904 30.696C130.613 31.1813 131.173 31.816 131.584 32.6C131.995 33.384 132.135 34.392 132.004 35.624C131.929 36.352 131.715 37.0613 131.36 37.752C131.024 38.4427 130.539 39.0587 129.904 39.6C129.288 40.1227 128.532 40.5333 127.636 40.832C126.759 41.112 125.741 41.224 124.584 41.168C123.744 41.1307 122.923 41.0093 122.12 40.804C121.336 40.58 120.589 40.2907 119.88 39.936C119.189 39.5627 118.536 39.1147 117.92 38.592L119.684 36.156C120.113 36.5293 120.599 36.8747 121.14 37.192C121.7 37.5093 122.279 37.7707 122.876 37.976C123.492 38.1627 124.089 38.2653 124.668 38.284C125.34 38.3027 125.956 38.2093 126.516 38.004C127.095 37.7987 127.571 37.4813 127.944 37.052C128.336 36.6227 128.56 36.0907 128.616 35.456C128.653 34.9147 128.523 34.4387 128.224 34.028C127.944 33.6173 127.561 33.2533 127.076 32.936C126.591 32.6 126.059 32.3013 125.48 32.04C124.883 31.76 124.276 31.452 123.66 31.116C123.044 30.78 122.475 30.388 121.952 29.94C121.448 29.4733 121.056 28.9133 120.776 28.26C120.515 27.6067 120.431 26.8413 120.524 25.964C120.636 24.8253 120.991 23.8547 121.588 23.052C122.204 22.2307 122.997 21.6147 123.968 21.204C124.957 20.7747 126.059 20.5693 127.272 20.588C128.243 20.6253 129.101 20.7467 129.848 20.952C130.613 21.1573 131.295 21.4187 131.892 21.736C132.489 22.0347 133.04 22.3707 133.544 22.744L131.976 25.124ZM137.386 20.616H150.91L150.546 23.64H140.382L139.71 29.24H148.726L148.362 32.348H139.318L138.646 37.892H149.202L148.81 41H134.894L137.386 20.616Z" fill="#00FFFF" style="mix-blend-mode:multiply"/>
<path d="M12.248 0.615999C13.368 0.615999 14.3667 0.765332 15.244 1.064C16.14 1.344 16.8867 1.764 17.484 2.324C18.0813 2.884 18.5107 3.57467 18.772 4.396C19.0333 5.19867 19.0987 6.12267 18.968 7.168C18.856 7.97067 18.632 8.77333 18.296 9.576C17.96 10.3787 17.4747 11.1067 16.84 11.76C16.224 12.4133 15.44 12.936 14.488 13.328C13.5547 13.72 12.4253 13.916 11.1 13.916H8.16L7.264 21H4.016L6.508 0.615999H12.248ZM11.436 10.78C12.4253 10.78 13.2093 10.584 13.788 10.192C14.3853 9.8 14.824 9.33333 15.104 8.792C15.384 8.25067 15.5427 7.74667 15.58 7.28C15.636 6.944 15.6267 6.58 15.552 6.188C15.496 5.77733 15.356 5.39467 15.132 5.04C14.908 4.66667 14.572 4.35867 14.124 4.116C13.6947 3.87333 13.1253 3.752 12.416 3.752H9.392L8.524 10.78H11.436ZM14.712 12.712L18.94 21H15.132L10.82 12.796L14.712 12.712ZM24.7332 0.615999H38.2572L37.8932 3.64H27.7292L27.0572 9.24H36.0732L35.7092 12.348H26.6652L25.9932 17.892H36.5492L36.1572 21H22.2412L24.7332 0.615999ZM47.4742 21.784L40.9782 0.615999H44.8702L49.3502 16.52L47.5022 16.128L55.3982 0.615999H59.2342L47.5862 21.784H47.4742ZM70.3032 0.615999H83.8272L83.4632 3.64H73.2992L72.6272 9.24H81.6432L81.2792 12.348H72.2352L71.5632 17.892H82.1192L81.7272 21H67.8112L70.3032 0.615999ZM86.5482 0.727999H90.3562L93.6042 15.148L93.1002 14.924L98.2522 4.9L99.2322 9.324L92.0922 21.952L86.5482 0.727999ZM96.5162 0.727999H99.7642L103.628 14.84L103.012 14.728L109.368 0.727999H112.868L102.284 21.896L96.5162 0.727999Z" fill="#FF0000" style="mix-blend-mode:multiply"/>
<path d="M52.408 41.728H52.324L38.548 26.524L39.444 26.944L37.792 41H34.488L37.092 19.916H37.232L50.756 35.12L50.056 34.868L51.736 20.616H55.012L52.408 41.728ZM72.7515 41.784L66.2555 20.616H70.1475L74.6275 36.52L72.7795 36.128L80.6755 20.616H84.5115L72.8635 41.784H72.7515ZM87.746 20.616H101.27L100.906 23.64H90.742L90.07 29.24H99.086L98.722 32.348H89.678L89.006 37.892H99.562L99.17 41H85.254L87.746 20.616ZM111.383 20.616C112.503 20.616 113.502 20.7653 114.379 21.064C115.275 21.344 116.022 21.764 116.619 22.324C117.216 22.884 117.646 23.5747 117.907 24.396C118.168 25.1987 118.234 26.1227 118.103 27.168C117.991 27.9707 117.767 28.7733 117.431 29.576C117.095 30.3787 116.61 31.1067 115.975 31.76C115.359 32.4133 114.575 32.936 113.623 33.328C112.69 33.72 111.56 33.916 110.235 33.916H107.295L106.399 41H103.151L105.643 20.616H111.383ZM110.571 30.78C111.56 30.78 112.344 30.584 112.923 30.192C113.52 29.8 113.959 29.3333 114.239 28.792C114.519 28.2507 114.678 27.7467 114.715 27.28C114.771 26.944 114.762 26.58 114.687 26.188C114.631 25.7773 114.491 25.3947 114.267 25.04C114.043 24.6667 113.707 24.3587 113.259 24.116C112.83 23.8733 112.26 23.752 111.551 23.752H108.527L107.659 30.78H110.571ZM113.847 32.712L118.075 41H114.267L109.955 32.796L113.847 32.712ZM133.976 25.124C133.285 24.6947 132.539 24.3213 131.736 24.004C130.933 23.6867 130.159 23.5093 129.412 23.472C128.833 23.4533 128.329 23.5093 127.9 23.64C127.489 23.752 127.135 23.92 126.836 24.144C126.556 24.368 126.341 24.6293 126.192 24.928C126.043 25.2267 125.949 25.5533 125.912 25.908C125.875 26.4307 126.024 26.9067 126.36 27.336C126.715 27.7653 127.191 28.1573 127.788 28.512C128.385 28.848 129.02 29.1653 129.692 29.464C130.457 29.8 131.195 30.2107 131.904 30.696C132.613 31.1813 133.173 31.816 133.584 32.6C133.995 33.384 134.135 34.392 134.004 35.624C133.929 36.352 133.715 37.0613 133.36 37.752C133.024 38.4427 132.539 39.0587 131.904 39.6C131.288 40.1227 130.532 40.5333 129.636 40.832C128.759 41.112 127.741 41.224 126.584 41.168C125.744 41.1307 124.923 41.0093 124.12 40.804C123.336 40.58 122.589 40.2907 121.88 39.936C121.189 39.5627 120.536 39.1147 119.92 38.592L121.684 36.156C122.113 36.5293 122.599 36.8747 123.14 37.192C123.7 37.5093 124.279 37.7707 124.876 37.976C125.492 38.1627 126.089 38.2653 126.668 38.284C127.34 38.3027 127.956 38.2093 128.516 38.004C129.095 37.7987 129.571 37.4813 129.944 37.052C130.336 36.6227 130.56 36.0907 130.616 35.456C130.653 34.9147 130.523 34.4387 130.224 34.028C129.944 33.6173 129.561 33.2533 129.076 32.936C128.591 32.6 128.059 32.3013 127.48 32.04C126.883 31.76 126.276 31.452 125.66 31.116C125.044 30.78 124.475 30.388 123.952 29.94C123.448 29.4733 123.056 28.9133 122.776 28.26C122.515 27.6067 122.431 26.8413 122.524 25.964C122.636 24.8253 122.991 23.8547 123.588 23.052C124.204 22.2307 124.997 21.6147 125.968 21.204C126.957 20.7747 128.059 20.5693 129.272 20.588C130.243 20.6253 131.101 20.7467 131.848 20.952C132.613 21.1573 133.295 21.4187 133.892 21.736C134.489 22.0347 135.04 22.3707 135.544 22.744L133.976 25.124ZM139.386 20.616H152.91L152.546 23.64H142.382L141.71 29.24H150.726L150.362 32.348H141.318L140.646 37.892H151.202L150.81 41H136.894L139.386 20.616Z" fill="#FF0000" style="mix-blend-mode:multiply"/>
<path d="M62.1486 1C58.8854 7.47059 54.3168 24.5294 62.1486 41" stroke="#00FFFF" stroke-width="3" style="mix-blend-mode:multiply"/>
<circle cx="59.4459" cy="32.8919" r="3.28378" fill="#00FFFF" style="mix-blend-mode:multiply"/>
<circle cx="59.4459" cy="32.8919" r="3.28378" stroke="#00FFFF" style="mix-blend-mode:multiply"/>
<path d="M64.1486 1C60.8854 7.47059 56.3168 24.5294 64.1486 41" stroke="#FF0000" stroke-width="3" style="mix-blend-mode:multiply"/>
<circle cx="61.4459" cy="32.8919" r="3.28378" fill="#FF0000" style="mix-blend-mode:multiply"/>
<circle cx="61.4459" cy="32.8919" r="3.28378" stroke="#FF0000" style="mix-blend-mode:multiply"/>
</svg>
