<svg width="152" height="42" viewBox="0 0 152 42" fill="none" xmlns="http://www.w3.org/2000/svg">
<path d="M10.248 0.615999C11.368 0.615999 12.3667 0.765332 13.244 1.064C14.14 1.344 14.8867 1.764 15.484 2.324C16.0813 2.884 16.5107 3.57467 16.772 4.396C17.0333 5.19867 17.0987 6.12267 16.968 7.168C16.856 7.97067 16.632 8.77333 16.296 9.576C15.96 10.3787 15.4747 11.1067 14.84 11.76C14.224 12.4133 13.44 12.936 12.488 13.328C11.5547 13.72 10.4253 13.916 9.1 13.916H6.16L5.264 21H2.016L4.508 0.615999H10.248ZM9.436 10.78C10.4253 10.78 11.2093 10.584 11.788 10.192C12.3853 9.8 12.824 9.33333 13.104 8.792C13.384 8.25067 13.5427 7.74667 13.58 7.28C13.636 6.944 13.6267 6.58 13.552 6.188C13.496 5.77733 13.356 5.39467 13.132 5.04C12.908 4.66667 12.572 4.35867 12.124 4.116C11.6947 3.87333 11.1253 3.752 10.416 3.752H7.392L6.524 10.78H9.436ZM12.712 12.712L16.94 21H13.132L8.82 12.796L12.712 12.712ZM22.7332 0.615999H36.2572L35.8932 3.64H25.7292L25.0572 9.24H34.0732L33.7092 12.348H24.6652L23.9932 17.892H34.5492L34.1572 21H20.2412L22.7332 0.615999ZM45.4742 21.784L38.9782 0.615999H42.8702L47.3502 16.52L45.5022 16.128L53.3982 0.615999H57.2342L45.5862 21.784H45.4742ZM68.3032 0.615999H81.8272L81.4632 3.64H71.2992L70.6272 9.24H79.6432L79.2792 12.348H70.2352L69.5632 17.892H80.1192L79.7272 21H65.8112L68.3032 0.615999ZM84.5482 0.727999H88.3562L91.6042 15.148L91.1002 14.924L96.2522 4.9L97.2322 9.324L90.0922 21.952L84.5482 0.727999ZM94.5162 0.727999H97.7642L101.628 14.84L101.012 14.728L107.368 0.727999H110.868L100.284 21.896L94.5162 0.727999Z" fill="white"/>
<path d="M50.908 41.728H50.824L37.048 26.524L37.944 26.944L36.292 41H32.988L35.592 19.916H35.732L49.256 35.12L48.556 34.868L50.236 20.616H53.512L50.908 41.728ZM71.2515 41.784L64.7555 20.616H68.6475L73.1275 36.52L71.2795 36.128L79.1755 20.616H83.0115L71.3635 41.784H71.2515ZM86.246 20.616H99.77L99.406 23.64H89.242L88.57 29.24H97.586L97.222 32.348H88.178L87.506 37.892H98.062L97.67 41H83.754L86.246 20.616ZM109.883 20.616C111.003 20.616 112.002 20.7653 112.879 21.064C113.775 21.344 114.522 21.764 115.119 22.324C115.716 22.884 116.146 23.5747 116.407 24.396C116.668 25.1987 116.734 26.1227 116.603 27.168C116.491 27.9707 116.267 28.7733 115.931 29.576C115.595 30.3787 115.11 31.1067 114.475 31.76C113.859 32.4133 113.075 32.936 112.123 33.328C111.19 33.72 110.06 33.916 108.735 33.916H105.795L104.899 41H101.651L104.143 20.616H109.883ZM109.071 30.78C110.06 30.78 110.844 30.584 111.423 30.192C112.02 29.8 112.459 29.3333 112.739 28.792C113.019 28.2507 113.178 27.7467 113.215 27.28C113.271 26.944 113.262 26.58 113.187 26.188C113.131 25.7773 112.991 25.3947 112.767 25.04C112.543 24.6667 112.207 24.3587 111.759 24.116C111.33 23.8733 110.76 23.752 110.051 23.752H107.027L106.159 30.78H109.071ZM112.347 32.712L116.575 41H112.767L108.455 32.796L112.347 32.712ZM132.476 25.124C131.785 24.6947 131.039 24.3213 130.236 24.004C129.433 23.6867 128.659 23.5093 127.912 23.472C127.333 23.4533 126.829 23.5093 126.4 23.64C125.989 23.752 125.635 23.92 125.336 24.144C125.056 24.368 124.841 24.6293 124.692 24.928C124.543 25.2267 124.449 25.5533 124.412 25.908C124.375 26.4307 124.524 26.9067 124.86 27.336C125.215 27.7653 125.691 28.1573 126.288 28.512C126.885 28.848 127.52 29.1653 128.192 29.464C128.957 29.8 129.695 30.2107 130.404 30.696C131.113 31.1813 131.673 31.816 132.084 32.6C132.495 33.384 132.635 34.392 132.504 35.624C132.429 36.352 132.215 37.0613 131.86 37.752C131.524 38.4427 131.039 39.0587 130.404 39.6C129.788 40.1227 129.032 40.5333 128.136 40.832C127.259 41.112 126.241 41.224 125.084 41.168C124.244 41.1307 123.423 41.0093 122.62 40.804C121.836 40.58 121.089 40.2907 120.38 39.936C119.689 39.5627 119.036 39.1147 118.42 38.592L120.184 36.156C120.613 36.5293 121.099 36.8747 121.64 37.192C122.2 37.5093 122.779 37.7707 123.376 37.976C123.992 38.1627 124.589 38.2653 125.168 38.284C125.84 38.3027 126.456 38.2093 127.016 38.004C127.595 37.7987 128.071 37.4813 128.444 37.052C128.836 36.6227 129.06 36.0907 129.116 35.456C129.153 34.9147 129.023 34.4387 128.724 34.028C128.444 33.6173 128.061 33.2533 127.576 32.936C127.091 32.6 126.559 32.3013 125.98 32.04C125.383 31.76 124.776 31.452 124.16 31.116C123.544 30.78 122.975 30.388 122.452 29.94C121.948 29.4733 121.556 28.9133 121.276 28.26C121.015 27.6067 120.931 26.8413 121.024 25.964C121.136 24.8253 121.491 23.8547 122.088 23.052C122.704 22.2307 123.497 21.6147 124.468 21.204C125.457 20.7747 126.559 20.5693 127.772 20.588C128.743 20.6253 129.601 20.7467 130.348 20.952C131.113 21.1573 131.795 21.4187 132.392 21.736C132.989 22.0347 133.54 22.3707 134.044 22.744L132.476 25.124ZM137.886 20.616H151.41L151.046 23.64H140.882L140.21 29.24H149.226L148.862 32.348H139.818L139.146 37.892H149.702L149.31 41H135.394L137.886 20.616Z" fill="white"/>
<path d="M62.9114 1C59.578 7.47059 54.9114 24.5294 62.9114 41" stroke="white" stroke-width="3"/>
<circle cx="59.9707" cy="33.3529" r="4.11765" fill="white"/>
</svg>
