<svg width="15" height="15" viewBox="0 0 15 15" fill="none" xmlns="http://www.w3.org/2000/svg">
<g clip-path="url(#clip0_531_1002)">
<path opacity="0.5" fill-rule="evenodd" clip-rule="evenodd" d="M7.5 15C8.48491 15 9.46018 14.806 10.3701 14.4291C11.2801 14.0522 12.1069 13.4997 12.8033 12.8033C13.4997 12.1069 14.0522 11.2801 14.4291 10.3701C14.806 9.46018 15 8.48491 15 7.5C15 6.51509 14.806 5.53982 14.4291 4.62987C14.0522 3.71993 13.4997 2.89314 12.8033 2.1967C12.1069 1.50026 11.2801 0.947814 10.3701 0.570903C9.46018 0.193993 8.48491 -1.46764e-08 7.5 0C5.51088 2.96403e-08 3.60322 0.790176 2.1967 2.1967C0.790176 3.60322 0 5.51088 0 7.5C0 9.48912 0.790176 11.3968 2.1967 12.8033C3.60322 14.2098 5.51088 15 7.5 15ZM10.495 4.505C10.3777 4.38763 10.2225 4.31576 10.0571 4.3022C9.89169 4.28865 9.72686 4.3343 9.592 4.431L9.505 4.505L7.5 6.51L5.495 4.505L5.408 4.431C5.26517 4.32821 5.08886 4.28298 4.91418 4.30434C4.7395 4.32569 4.57928 4.41205 4.46541 4.54622C4.35154 4.68039 4.29238 4.85253 4.29972 5.02835C4.30706 5.20417 4.38035 5.37078 4.505 5.495L6.51 7.5L4.505 9.505C4.38035 9.62922 4.30706 9.79583 4.29972 9.97165C4.29238 10.1475 4.35154 10.3196 4.46541 10.4538C4.57928 10.588 4.7395 10.6743 4.91418 10.6957C5.08886 10.717 5.26517 10.6718 5.408 10.569L5.495 10.495L7.5 8.49L9.505 10.495L9.592 10.569C9.73483 10.6718 9.91114 10.717 10.0858 10.6957C10.2605 10.6743 10.4207 10.588 10.5346 10.4538C10.6485 10.3196 10.7076 10.1475 10.7003 9.97165C10.6929 9.79583 10.6197 9.62922 10.495 9.505L8.49 7.5L10.495 5.495C10.56 5.43 10.6116 5.35283 10.6468 5.26789C10.6819 5.18296 10.7001 5.09193 10.7001 5C10.7001 4.90807 10.6819 4.81704 10.6468 4.73211C10.6116 4.64717 10.56 4.57 10.495 4.505Z" fill="black"/>
</g>
<defs>
<clipPath id="clip0_531_1002">
<rect width="15" height="15" fill="white"/>
</clipPath>
</defs>
</svg>
