<svg width="current" height="current" viewBox="0 0 24 24" fill="none" xmlns="http://www.w3.org/2000/svg">
<path d="M18.6412 7.37694C19.1196 6.89852 19.1196 6.12287 18.6412 5.64445C18.1628 5.16604 17.3871 5.16604 16.9087 5.64445L12 10.5531L7.09131 5.64445C6.6129 5.16604 5.83724 5.16604 5.35882 5.64445C4.88041 6.12287 4.88041 6.89853 5.35882 7.37694L10.2675 12.2856L5.35881 17.1943C4.8804 17.6728 4.8804 18.4484 5.35881 18.9268C5.83722 19.4052 6.61288 19.4052 7.09129 18.9268L12 14.0181L16.9087 18.9268C17.3871 19.4052 18.1628 19.4052 18.6412 18.9268C19.1196 18.4484 19.1196 17.6728 18.6412 17.1943L13.7325 12.2856L18.6412 7.37694Z" fill="#EEF7FC"/>
</svg>
