<svg width="24" height="25" viewBox="0 0 24 25" fill="none" xmlns="http://www.w3.org/2000/svg">
<path d="M18.6412 8.09129C19.1196 7.61288 19.1196 6.83722 18.6412 6.35881C18.1628 5.8804 17.3871 5.8804 16.9087 6.35881L12 11.2675L7.09131 6.35881C6.6129 5.8804 5.83724 5.8804 5.35882 6.35881C4.88041 6.83722 4.88041 7.61288 5.35882 8.09129L10.2675 13L5.35881 17.9087C4.8804 18.3871 4.8804 19.1628 5.35881 19.6412C5.83722 20.1196 6.61288 20.1196 7.09129 19.6412L12 14.7325L16.9087 19.6412C17.3871 20.1196 18.1628 20.1196 18.6412 19.6412C19.1196 19.1628 19.1196 18.3871 18.6412 17.9087L13.7325 13L18.6412 8.09129Z" fill="#EEF7FC"/>
</svg>
