<svg width="31" height="25" viewBox="0 0 31 25" fill="none" xmlns="http://www.w3.org/2000/svg">
<path d="M9.32857 0C4.56139 0 0.5 3.585 0.5 8.24103C0.5 11.453 1.99545 14.1572 3.97741 16.3973C5.95256 18.6297 8.50082 20.5035 10.8045 22.0718L14.7793 24.7777C15.2146 25.0741 15.7854 25.0741 16.2207 24.7777L20.1955 22.0718C22.4992 20.5035 25.0474 18.6297 27.0226 16.3973C29.0045 14.1572 30.5 11.453 30.5 8.24103C30.5 3.585 26.4386 0 21.6714 0C19.214 0 17.0517 1.15886 15.5 2.65833C13.9483 1.15886 11.786 0 9.32857 0Z" fill="#FC00FF"/>
</svg>
