<svg width="33" height="25" viewBox="0 0 33 25" fill="none" xmlns="http://www.w3.org/2000/svg">
<path fill-rule="evenodd" clip-rule="evenodd" d="M32.5002 7.65162C33.214 12.2144 33.1629 16.8677 32.3489 21.4129C32.0519 23.0712 30.6926 24.3142 29.0445 24.4345L26.0306 24.6545C19.7186 25.1152 13.3825 25.1152 7.07055 24.6545L4.28452 24.4511C2.5023 24.321 1.03229 22.9768 0.711143 21.1835C-0.075812 16.7893 -0.210537 12.2992 0.311485 7.86409L0.812904 3.604C1.05495 1.5476 2.76488 0 4.79496 0H9.01182C10.8379 0 12.3182 1.51027 12.3182 3.37329C12.3182 3.43483 12.3671 3.48472 12.4274 3.48472L28.4605 3.48472C30.4122 3.48472 32.0747 4.9316 32.3823 6.89796L32.5002 7.65162ZM17.9307 9.85648C17.9307 9.07882 17.3128 8.44841 16.5506 8.44841C15.7884 8.44841 15.1705 9.07882 15.1705 9.85648V13.142H11.9502C11.188 13.142 10.5701 13.7724 10.5701 14.55C10.5701 15.3277 11.188 15.9581 11.9502 15.9581H15.1705V19.2436C15.1705 20.0212 15.7884 20.6517 16.5506 20.6517C17.3128 20.6517 17.9307 20.0212 17.9307 19.2436V15.9581H21.151C21.9132 15.9581 22.5311 15.3277 22.5311 14.55C22.5311 13.7724 21.9132 13.142 21.151 13.142H17.9307V9.85648Z" fill="#00DBDE"/>
</svg>
