<svg width="current" height="current" viewBox="0 0 24 25" fill="none" xmlns="http://www.w3.org/2000/svg">
<path d="M12.8723 3.71481C12.4836 3.0521 11.5164 3.05209 11.1277 3.71481L8.39057 8.38198C8.19858 8.70936 7.86673 8.93276 7.48847 8.98929L2.35889 9.75585C1.49735 9.8846 1.19514 10.9609 1.8661 11.5109L5.68742 14.6433C6.04115 14.9333 6.20747 15.3906 6.12155 15.8371L5.12195 21.031C4.96393 21.852 5.83507 22.4899 6.58252 22.1005L11.4127 19.5842C11.7803 19.3926 12.2197 19.3926 12.5873 19.5842L17.4175 22.1005C18.1649 22.4899 19.0361 21.852 18.8781 21.031L17.8785 15.8371C17.7925 15.3906 17.9589 14.9333 18.3126 14.6433L22.1339 11.5109C22.8049 10.9609 22.5027 9.8846 21.6411 9.75585L16.5115 8.98929C16.1333 8.93276 15.8014 8.70936 15.6094 8.38198L12.8723 3.71481Z" fill="white"/>
</svg>
