<svg width="16" height="16" viewBox="0 0 16 16" fill="none" xmlns="http://www.w3.org/2000/svg">
<path d="M7.4377 1.96964e-10C6.97786 7.43106e-06 6.54711 0.219935 6.28433 0.588868L2.03551 6.55412C1.23766 7.67429 0.882051 9.0392 1.03456 10.396L1.36128 13.3029C1.5009 14.5452 2.49834 15.5291 3.76761 15.6767L5.89313 15.9239C7.51626 16.1127 9.16199 15.9491 10.713 15.4447C11.7987 15.0917 12.6683 14.286 13.0872 13.2451L14.8027 8.98296C14.8856 8.7768 14.943 8.56164 14.9735 8.34211C15.2388 6.43078 13.4724 4.84734 11.5477 5.27134L7.63421 6.13348L8.79871 1.71715C9.02803 0.847456 8.35633 -1.49189e-05 7.4377 1.96964e-10Z" fill="#FC00FF"/>
</svg>
