<svg width="12" height="17" viewBox="0 0 12 17" fill="none" xmlns="http://www.w3.org/2000/svg">
<path d="M3.87097 1.31455C3.87097 0.98307 4.13093 0.714355 4.45161 0.714355H7.54839C7.86907 0.714355 8.12903 0.98307 8.12903 1.31455V1.91474H11.4194C11.74 1.91474 12 2.18345 12 2.51493C12 2.84641 11.74 3.11512 11.4194 3.11512H0.580645C0.259964 3.11512 0 2.84641 0 2.51493C0 2.18345 0.259964 1.91474 0.580645 1.91474H3.87097V1.31455Z" fill="#D5DDE2"/>
<path fill-rule="evenodd" clip-rule="evenodd" d="M1.54056 5.27164C1.56235 5.069 1.72805 4.9157 1.92529 4.9157H10.0747C10.2719 4.9157 10.4376 5.069 10.4594 5.27164L10.6144 6.71317C10.8937 9.31158 10.8937 11.934 10.6144 14.5324L10.5991 14.6743C10.4974 15.6207 9.78783 16.3753 8.87555 16.5073C6.96782 16.7834 5.03218 16.7834 3.12444 16.5073C2.21216 16.3753 1.50259 15.6207 1.40086 14.6743L1.38561 14.5324C1.1063 11.934 1.1063 9.31158 1.38561 6.71317L1.54056 5.27164ZM5.03226 8.03669C5.03226 7.70521 4.77229 7.4365 4.45161 7.4365C4.13093 7.4365 3.87097 7.70521 3.87097 8.03669L3.87097 13.6385C3.87097 13.97 4.13093 14.2387 4.45161 14.2387C4.77229 14.2387 5.03226 13.97 5.03226 13.6385L5.03226 8.03669ZM8.12903 8.03669C8.12903 7.70521 7.86907 7.4365 7.54839 7.4365C7.22771 7.4365 6.96774 7.70521 6.96774 8.03669V13.6385C6.96774 13.97 7.22771 14.2387 7.54839 14.2387C7.86907 14.2387 8.12903 13.97 8.12903 13.6385V8.03669Z" fill="#D5DDE2"/>
</svg>
