<svg width="current" height="current" viewBox="0 0 18 18" fill="none" xmlns="http://www.w3.org/2000/svg">
<path d="M6.87097 1.60019C6.87097 1.26871 7.13093 1 7.45161 1H10.5484C10.8691 1 11.129 1.26871 11.129 1.60019V2.20038H14.4194C14.74 2.20038 15 2.4691 15 2.80057C15 3.13205 14.74 3.40077 14.4194 3.40077H3.58065C3.25996 3.40077 3 3.13205 3 2.80057C3 2.4691 3.25996 2.20038 3.58065 2.20038H6.87097V1.60019Z" fill="#D5DDE2"/>
<path fill-rule="evenodd" clip-rule="evenodd" d="M4.54056 5.55728C4.56235 5.35464 4.72805 5.20134 4.92529 5.20134H13.0747C13.2719 5.20134 13.4376 5.35464 13.4594 5.55728L13.6144 6.99882C13.8937 9.59723 13.8937 12.2196 13.6144 14.818L13.5991 14.9599C13.4974 15.9063 12.7878 16.6609 11.8755 16.7929C9.96782 17.069 8.03218 17.069 6.12444 16.7929C5.21216 16.6609 4.50259 15.9063 4.40086 14.9599L4.38561 14.818C4.1063 12.2196 4.1063 9.59723 4.38561 6.99882L4.54056 5.55728ZM8.03226 8.32233C8.03226 7.99086 7.77229 7.72214 7.45161 7.72214C7.13093 7.72214 6.87097 7.99086 6.87097 8.32233L6.87097 13.9241C6.87097 14.2556 7.13093 14.5243 7.45161 14.5243C7.77229 14.5243 8.03226 14.2556 8.03226 13.9241L8.03226 8.32233ZM11.129 8.32233C11.129 7.99086 10.8691 7.72214 10.5484 7.72214C10.2277 7.72214 9.96774 7.99086 9.96774 8.32233V13.9241C9.96774 14.2556 10.2277 14.5243 10.5484 14.5243C10.8691 14.5243 11.129 14.2556 11.129 13.9241V8.32233Z" fill="#D5DDE2"/>
</svg>
