<svg width="33" height="26" viewBox="0 0 33 26" fill="none" xmlns="http://www.w3.org/2000/svg">
<path fill-rule="evenodd" clip-rule="evenodd" d="M32.5002 8.36598C33.214 12.9287 33.1629 17.582 32.3489 22.1273C32.0519 23.7855 30.6926 25.0285 29.0445 25.1488L26.0306 25.3688C19.7186 25.8295 13.3825 25.8295 7.07055 25.3688L4.28452 25.1655C2.5023 25.0354 1.03229 23.6912 0.711143 21.8979C-0.075812 17.5036 -0.210537 13.0136 0.311485 8.57845L0.812904 4.31836C1.05495 2.26195 2.76488 0.714355 4.79496 0.714355H9.01182C10.8379 0.714355 12.3182 2.22463 12.3182 4.08765C12.3182 4.14919 12.3671 4.19908 12.4274 4.19908L28.4605 4.19908C30.4122 4.19908 32.0747 5.64595 32.3823 7.61232L32.5002 8.36598ZM17.9307 10.5708C17.9307 9.79318 17.3128 9.16276 16.5506 9.16276C15.7884 9.16276 15.1705 9.79318 15.1705 10.5708V13.8563H11.9502C11.188 13.8563 10.5701 14.4867 10.5701 15.2644C10.5701 16.042 11.188 16.6725 11.9502 16.6725H15.1705V19.958C15.1705 20.7356 15.7884 21.366 16.5506 21.366C17.3128 21.366 17.9307 20.7356 17.9307 19.958V16.6725H21.151C21.9132 16.6725 22.5311 16.042 22.5311 15.2644C22.5311 14.4867 21.9132 13.8563 21.151 13.8563H17.9307V10.5708Z" fill="#00DBDE"/>
</svg>
