<svg width="16" height="17" viewBox="0 0 16 17" fill="none" xmlns="http://www.w3.org/2000/svg">
<g clip-path="url(#clip0_166_636)">
<path d="M7.4377 0.714355C6.97786 0.714363 6.54711 0.93429 6.28433 1.30322L2.03551 7.26847C1.23766 8.38864 0.882051 9.75355 1.03456 11.1104L1.36128 14.0173C1.5009 15.2595 2.49834 16.2435 3.76761 16.3911L5.89313 16.6383C7.51626 16.8271 9.16199 16.6634 10.713 16.1591C11.7987 15.806 12.6683 15.0004 13.0872 13.9595L14.8027 9.69732C14.8856 9.49116 14.943 9.276 14.9735 9.05646C15.2388 7.14513 13.4724 5.56169 11.5477 5.98569L7.63421 6.84784L8.79871 2.43151C9.02803 1.56181 8.35633 0.714341 7.4377 0.714355Z" fill="#FC00FF"/>
</g>
<defs>
<clipPath id="clip0_166_636">
<rect width="16" height="16" fill="white" transform="translate(0 0.714355)"/>
</clipPath>
</defs>
</svg>
