<svg width="31" height="26" viewBox="0 0 31 26" fill="none" xmlns="http://www.w3.org/2000/svg">
<path d="M9.32857 0.714355C4.56139 0.714355 0.5 4.29936 0.5 8.95538C0.5 12.1674 1.99545 14.8716 3.97741 17.1116C5.95256 19.344 8.50082 21.2178 10.8045 22.7861L14.7793 25.4921C15.2146 25.7884 15.7854 25.7884 16.2207 25.4921L20.1955 22.7861C22.4992 21.2178 25.0474 19.344 27.0226 17.1116C29.0045 14.8716 30.5 12.1674 30.5 8.95538C30.5 4.29936 26.4386 0.714355 21.6714 0.714355C19.214 0.714355 17.0517 1.87322 15.5 3.37269C13.9483 1.87322 11.786 0.714355 9.32857 0.714355Z" fill="#FC00FF"/>
</svg>
