<svg width="24" height="25" viewBox="0 0 24 25" fill="none" xmlns="http://www.w3.org/2000/svg">
<path d="M16.5187 0C16.7116 0 16.8966 0.0763455 17.0329 0.212241L21.147 4.31141C21.431 4.5944 21.431 5.05322 21.147 5.3362L7.77628 18.6585C7.68491 18.7495 7.57084 18.8147 7.44582 18.8472L1.8772 20.2965C1.62739 20.3615 1.36171 20.2897 1.17914 20.1078C0.996568 19.9259 0.924481 19.6612 0.989732 19.4123L2.44428 13.8638C2.47693 13.7392 2.54231 13.6256 2.63368 13.5345L16.0044 0.212241C16.1408 0.0763455 16.3258 0 16.5187 0Z" fill="white"/>
<path d="M1.09091 22.8261C0.488417 22.8261 0 23.3127 0 23.913C0 24.5134 0.488417 25 1.09091 25H22.9091C23.5116 25 24 24.5134 24 23.913C24 23.3127 23.5116 22.8261 22.9091 22.8261H1.09091Z" fill="white"/>
</svg>
