<svg width="18" height="18" viewBox="0 0 18 18" fill="none" xmlns="http://www.w3.org/2000/svg">
<path d="M11.8242 1C11.9447 1 12.0603 1.04886 12.1456 1.13583L14.7169 3.7593C14.8944 3.94042 14.8944 4.23406 14.7169 4.41517L6.36017 12.9414C6.30307 12.9997 6.23178 13.0414 6.15364 13.0622L2.67325 13.9898C2.51712 14.0314 2.35107 13.9854 2.23696 13.869C2.12285 13.7526 2.0778 13.5831 2.11858 13.4238L3.02767 9.87284C3.04808 9.79311 3.08894 9.72037 3.14605 9.66211L11.5028 1.13583C11.588 1.04886 11.7036 1 11.8242 1Z" fill="white"/>
<path d="M2.18182 15.6087C1.80526 15.6087 1.5 15.9202 1.5 16.3043C1.5 16.6885 1.80526 17 2.18182 17H15.8182C16.1947 17 16.5 16.6885 16.5 16.3043C16.5 15.9202 16.1947 15.6087 15.8182 15.6087H2.18182Z" fill="white"/>
</svg>
