<svg width="24" height="26" viewBox="0 0 24 26" fill="none" xmlns="http://www.w3.org/2000/svg">
<path d="M16.5187 0.714355C16.7116 0.714355 16.8966 0.790701 17.0329 0.926597L21.147 5.02577C21.431 5.30876 21.431 5.76757 21.147 6.05056L7.77628 19.3729C7.68491 19.4639 7.57084 19.529 7.44582 19.5616L1.8772 21.0109C1.62739 21.0759 1.36171 21.004 1.17914 20.8221C0.996568 20.6402 0.924481 20.3755 0.989732 20.1266L2.44428 14.5782C2.47693 14.4536 2.54231 14.3399 2.63368 14.2489L16.0044 0.926597C16.1408 0.790701 16.3258 0.714355 16.5187 0.714355Z" fill="#D5DDE2"/>
<path d="M1.09091 23.5404C0.488417 23.5404 0 24.0271 0 24.6274C0 25.2277 0.488417 25.7144 1.09091 25.7144H22.9091C23.5116 25.7144 24 25.2277 24 24.6274C24 24.0271 23.5116 23.5404 22.9091 23.5404H1.09091Z" fill="#D5DDE2"/>
</svg>
