<svg width="24" height="25" viewBox="0 0 24 25" fill="none" xmlns="http://www.w3.org/2000/svg">
<path d="M12 5.96436C12.4142 5.96436 12.75 6.30014 12.75 6.71436C12.75 7.12857 12.4142 7.46436 12 7.46436C11.5858 7.46436 11.25 7.12857 11.25 6.71436C11.25 6.30014 11.5858 5.96436 12 5.96436ZM12 11.9644C12.4142 11.9644 12.75 12.3001 12.75 12.7144C12.75 13.1286 12.4142 13.4644 12 13.4644C11.5858 13.4644 11.25 13.1286 11.25 12.7144C11.25 12.3001 11.5858 11.9644 12 11.9644ZM12 17.9644C12.4142 17.9644 12.75 18.3001 12.75 18.7144C12.75 19.1286 12.4142 19.4644 12 19.4644C11.5858 19.4644 11.25 19.1286 11.25 18.7144C11.25 18.3001 11.5858 17.9644 12 17.9644Z" fill="#D5DDE2" stroke="#D5DDE2" stroke-width="1.5"/>
</svg>
