<svg width="16" height="16" viewBox="0 0 16 16" fill="none" xmlns="http://www.w3.org/2000/svg">
<path fill-rule="evenodd" clip-rule="evenodd" d="M6.81578 1.47239C6.64924 1.47239 6.49551 1.55994 6.41308 1.70171L3.06099 7.46685C2.61664 8.23106 2.43017 9.11333 2.52822 9.98759L2.88201 13.1421C2.94496 13.7034 3.39465 14.1479 3.96689 14.2146L6.08781 14.4618C7.48793 14.625 8.90756 14.4836 10.2455 14.0476C10.9062 13.8322 11.4355 13.3409 11.6904 12.706L13.3976 8.4551C13.4394 8.35117 13.4682 8.24271 13.4836 8.13204C13.613 7.19745 12.778 6.40908 11.8296 6.57047L8.40759 7.15283C7.32662 7.33678 6.393 6.40212 6.60397 5.34718L7.2706 2.01382C7.32669 1.73331 7.10751 1.47239 6.81578 1.47239ZM5.10736 0.972869C5.45708 0.371398 6.10926 6.20189e-06 6.81576 0C8.05341 -1.08823e-05 8.98328 1.10692 8.74529 2.29694L8.07867 5.63031C8.07581 5.64459 8.07735 5.65331 8.07936 5.65958C8.08183 5.66729 8.0869 5.67633 8.09528 5.68471C8.10365 5.69309 8.11276 5.69826 8.12058 5.70085C8.12693 5.70295 8.1358 5.70464 8.15044 5.70215L11.5725 5.1198C13.5222 4.788 15.2388 6.40875 14.9726 8.33009C14.9411 8.55761 14.8818 8.78059 14.796 8.99425L13.0888 13.2451C12.6708 14.286 11.8031 15.0917 10.7198 15.4447C9.17209 15.9491 7.52992 16.1127 5.9103 15.9239L3.78938 15.6767C2.52287 15.5291 1.52758 14.5452 1.38826 13.3029L1.03447 10.1484C0.901817 8.96559 1.1541 7.77194 1.75527 6.73801L5.10736 0.972869Z" fill="#5A7687"/>
</svg>
