<svg width="24" height="26" viewBox="0 0 24 26" fill="none" xmlns="http://www.w3.org/2000/svg">
<path fill-rule="evenodd" clip-rule="evenodd" d="M17.2901 1.02817C17.0855 0.827238 16.808 0.714355 16.5187 0.714355C16.2294 0.714355 15.9519 0.827238 15.7473 1.02817L2.37655 14.1602C2.2395 14.2948 2.14143 14.4628 2.09245 14.647L0.6379 20.1162C0.540024 20.4842 0.648153 20.8756 0.922008 21.1446C1.19586 21.4135 1.59438 21.5197 1.9691 21.4236L7.53772 19.995C7.72525 19.9469 7.89635 19.8506 8.03341 19.716L21.4042 6.58401C21.8302 6.16559 21.8302 5.4872 21.4042 5.06878L17.2901 1.02817ZM4.12863 15.4698L16.5187 3.30101L19.09 5.82639L6.69993 17.9952L3.21954 18.8881L4.12863 15.4698Z" fill="#D5DDE2" fill-opacity="0.5"/>
<path d="M1.09091 23.5715C0.488417 23.5715 0 24.0512 0 24.6429C0 25.2347 0.488417 25.7144 1.09091 25.7144H22.9091C23.5116 25.7144 24 25.2347 24 24.6429C24 24.0512 23.5116 23.5715 22.9091 23.5715H1.09091Z" fill="#D5DDE2" fill-opacity="0.5"/>
</svg>
