<svg width="24" height="25" viewBox="0 0 24 25" fill="none" xmlns="http://www.w3.org/2000/svg">
<path d="M14.0001 9.71423C14.0001 8.88581 14.6716 8.21423 15.5001 8.21423C16.3285 8.21423 17.0001 8.88581 17.0001 9.71423C17.0001 10.5427 16.3285 11.2142 15.5001 11.2142C14.6716 11.2142 14.0001 10.5427 14.0001 9.71423Z" fill="white"/>
<path fill-rule="evenodd" clip-rule="evenodd" d="M7.26759 5.37279C10.4166 5.09905 13.5835 5.09905 16.7325 5.37279L18.2428 5.50407C19.6878 5.62968 20.8585 6.72933 21.0742 8.16372C21.5279 11.1804 21.5279 14.248 21.0742 17.2647C20.8585 18.6991 19.6878 19.7988 18.2428 19.9244L16.7325 20.0557C13.5835 20.3294 10.4166 20.3294 7.26759 20.0557L5.75736 19.9244C4.31229 19.7988 3.14162 18.6991 2.92592 17.2647C2.47228 14.248 2.47228 11.1804 2.92592 8.16372C3.14162 6.72933 4.31229 5.62968 5.75736 5.50407L7.26759 5.37279ZM16.6026 6.86715C13.54 6.60092 10.4601 6.60092 7.3975 6.86715L5.88726 6.99843C5.13293 7.064 4.52184 7.63802 4.40925 8.38678C4.15171 10.0994 4.04792 11.8293 4.09786 13.5558L7.96973 9.6839C8.11579 9.53784 8.31562 9.45849 8.52209 9.46456C8.72856 9.47062 8.92338 9.56158 9.06061 9.71596L12.7321 13.8463L15.2629 13.0027C15.5459 12.9084 15.8579 12.9908 16.0575 13.2125L19.5767 17.1226C19.582 17.0959 19.5868 17.0689 19.5909 17.0417C20.0223 14.1728 20.0223 11.2556 19.5909 8.38678C19.4783 7.63802 18.8672 7.064 18.1129 6.99843L16.6026 6.86715ZM18.6202 18.3022L15.2712 14.5811L12.7372 15.4257C12.4526 15.5206 12.1388 15.4367 11.9395 15.2125L8.46794 11.307L4.22426 15.5507C4.27304 16.0488 4.3347 16.546 4.40925 17.0417C4.52184 17.7904 5.13293 18.3645 5.88726 18.43L7.3975 18.5613C10.4601 18.8275 13.54 18.8275 16.6026 18.5613L18.1129 18.43C18.2916 18.4145 18.4623 18.3704 18.6202 18.3022Z" fill="white"/>
</svg>
