<svg width="18" height="18" viewBox="0 0 18 18" fill="none" xmlns="http://www.w3.org/2000/svg">
<path d="M7.45161 1C7.13093 1 6.87097 1.2654 6.87097 1.59278V2.18556H3.58065C3.25996 2.18556 3 2.45096 3 2.77834C3 3.10572 3.25996 3.37112 3.58065 3.37112H14.4194C14.74 3.37112 15 3.10572 15 2.77834C15 2.45096 14.74 2.18556 14.4194 2.18556H11.129V1.59278C11.129 1.2654 10.8691 1 10.5484 1H7.45161Z" fill="#D5DDE2" fill-opacity="0.5"/>
<path d="M7.45161 7.63912C7.77229 7.63912 8.03226 7.90452 8.03226 8.2319L8.03226 13.7645C8.03226 14.0919 7.77229 14.3573 7.45161 14.3573C7.13093 14.3573 6.87097 14.0919 6.87097 13.7645L6.87097 8.2319C6.87097 7.90452 7.13093 7.63912 7.45161 7.63912Z" fill="#D5DDE2" fill-opacity="0.5"/>
<path d="M11.129 8.2319C11.129 7.90452 10.8691 7.63912 10.5484 7.63912C10.2277 7.63912 9.96774 7.90452 9.96774 8.2319V13.7645C9.96774 14.0919 10.2277 14.3573 10.5484 14.3573C10.8691 14.3573 11.129 14.0919 11.129 13.7645V8.2319Z" fill="#D5DDE2" fill-opacity="0.5"/>
<path fill-rule="evenodd" clip-rule="evenodd" d="M4.3482 5.47918C4.38087 5.17898 4.62943 4.95186 4.92529 4.95186H13.0747C13.3706 4.95186 13.6191 5.17898 13.6518 5.47918L13.8067 6.90292C14.0876 9.48374 14.0876 12.0884 13.8067 14.6692L13.7915 14.8094C13.68 15.8338 12.9023 16.6507 11.9024 16.7936C9.97685 17.0688 8.02314 17.0688 6.09761 16.7936C5.09771 16.6507 4.32 15.8338 4.2085 14.8094L4.19325 14.6692C3.91236 12.0884 3.91236 9.48374 4.19325 6.90292L4.3482 5.47918ZM5.445 6.13742L5.34743 7.03384C5.07602 9.52765 5.07602 12.0445 5.34743 14.5383L5.36269 14.6784C5.41557 15.1643 5.78441 15.5517 6.25862 15.6195C8.07733 15.8794 9.92266 15.8794 11.7414 15.6195C12.2156 15.5517 12.5844 15.1643 12.6373 14.6784L12.6526 14.5383C12.924 12.0445 12.924 9.52765 12.6526 7.03384L12.555 6.13742H5.445Z" fill="#D5DDE2" fill-opacity="0.5"/>
</svg>
