<svg width="24" height="25" viewBox="0 0 24 25" fill="none" xmlns="http://www.w3.org/2000/svg">
<path fill-rule="evenodd" clip-rule="evenodd" d="M8.92906 5.18468C7.65784 5.04261 6.34193 5.04261 5.07071 5.18468C4.76182 5.21921 4.51823 5.4638 4.48348 5.76085C4.33168 7.05879 4.33168 8.37001 4.48348 9.66795C4.51823 9.965 4.76182 10.2096 5.07071 10.2441C6.34193 10.3862 7.65784 10.3862 8.92906 10.2441C9.23795 10.2096 9.48154 9.965 9.51629 9.66795C9.66809 8.37001 9.66809 7.05879 9.51629 5.76085C9.48154 5.4638 9.23795 5.21921 8.92906 5.18468ZM4.9041 3.69396C6.28605 3.53951 7.71372 3.53951 9.09567 3.69396C10.0865 3.80471 10.889 4.58469 11.0061 5.5866C11.1715 7.00032 11.1715 8.42848 11.0061 9.8422C10.889 10.8441 10.0865 11.6241 9.09567 11.7348C7.71372 11.8893 6.28605 11.8893 4.90411 11.7348C3.91327 11.6241 3.11082 10.8441 2.99364 9.8422C2.82829 8.42848 2.82829 7.00032 2.99364 5.5866C3.11082 4.58469 3.91326 3.80471 4.9041 3.69396Z" fill="white"/>
<path fill-rule="evenodd" clip-rule="evenodd" d="M8.92906 15.1847C7.65784 15.0426 6.34193 15.0426 5.07071 15.1847C4.76182 15.2192 4.51823 15.4638 4.48348 15.7609C4.33168 17.0588 4.33168 18.37 4.48348 19.6679C4.51823 19.965 4.76182 20.2096 5.07071 20.2441C6.34193 20.3862 7.65784 20.3862 8.92906 20.2441C9.23795 20.2096 9.48154 19.965 9.51629 19.6679C9.66809 18.37 9.66809 17.0588 9.51629 15.7609C9.48154 15.4638 9.23795 15.2192 8.92906 15.1847ZM4.9041 13.694C6.28605 13.5395 7.71372 13.5395 9.09567 13.694C10.0865 13.8047 10.889 14.5847 11.0061 15.5866C11.1715 17.0003 11.1715 18.4285 11.0061 19.8422C10.889 20.8441 10.0865 21.6241 9.09567 21.7348C7.71372 21.8893 6.28605 21.8893 4.90411 21.7348C3.91327 21.6241 3.11082 20.8441 2.99364 19.8422C2.82829 18.4285 2.82829 17.0003 2.99364 15.5866C3.11082 14.5847 3.91326 13.8047 4.9041 13.694Z" fill="white"/>
<path fill-rule="evenodd" clip-rule="evenodd" d="M18.9291 5.18468C17.6578 5.04261 16.3419 5.04261 15.0707 5.18468C14.7618 5.21921 14.5182 5.4638 14.4835 5.76085C14.3317 7.05879 14.3317 8.37001 14.4835 9.66795C14.5182 9.965 14.7618 10.2096 15.0707 10.2441C16.3419 10.3862 17.6578 10.3862 18.9291 10.2441C19.2379 10.2096 19.4815 9.965 19.5163 9.66795C19.6681 8.37001 19.6681 7.05879 19.5163 5.76085C19.4815 5.4638 19.2379 5.21921 18.9291 5.18468ZM14.9041 3.69396C16.2861 3.53951 17.7137 3.53951 19.0957 3.69396C20.0865 3.80471 20.889 4.58469 21.0061 5.5866C21.1715 7.00032 21.1715 8.42848 21.0061 9.8422C20.889 10.8441 20.0865 11.6241 19.0957 11.7348C17.7137 11.8893 16.2861 11.8893 14.9041 11.7348C13.9133 11.6241 13.1108 10.8441 12.9936 9.8422C12.8283 8.42848 12.8283 7.00032 12.9936 5.5866C13.1108 4.58469 13.9133 3.80471 14.9041 3.69396Z" fill="white"/>
<path fill-rule="evenodd" clip-rule="evenodd" d="M18.9291 15.1847C17.6578 15.0426 16.3419 15.0426 15.0707 15.1847C14.7618 15.2192 14.5182 15.4638 14.4835 15.7609C14.3317 17.0588 14.3317 18.37 14.4835 19.6679C14.5182 19.965 14.7618 20.2096 15.0707 20.2441C16.3419 20.3862 17.6578 20.3862 18.9291 20.2441C19.2379 20.2096 19.4815 19.965 19.5163 19.6679C19.6681 18.37 19.6681 17.0588 19.5163 15.7609C19.4815 15.4638 19.2379 15.2192 18.9291 15.1847ZM14.9041 13.694C16.2861 13.5395 17.7137 13.5395 19.0957 13.694C20.0865 13.8047 20.889 14.5847 21.0061 15.5866C21.1715 17.0003 21.1715 18.4285 21.0061 19.8422C20.889 20.8441 20.0865 21.6241 19.0957 21.7348C17.7137 21.8893 16.2861 21.8893 14.9041 21.7348C13.9133 21.6241 13.1108 20.8441 12.9936 19.8422C12.8283 18.4285 12.8283 17.0003 12.9936 15.5866C13.1108 14.5847 13.9133 13.8047 14.9041 13.694Z" fill="white"/>
</svg>
