<svg width="current" height="current" viewBox="0 0 24 24" fill="none" xmlns="http://www.w3.org/2000/svg">
<path d="M14.0001 8.99988C14.0001 8.17145 14.6716 7.49988 15.5001 7.49988C16.3285 7.49988 17.0001 8.17145 17.0001 8.99988C17.0001 9.82831 16.3285 10.4999 15.5001 10.4999C14.6716 10.4999 14.0001 9.82831 14.0001 8.99988Z" fill="white"/>
<path fill-rule="evenodd" clip-rule="evenodd" d="M7.26759 4.65843C10.4166 4.38469 13.5835 4.38469 16.7325 4.65843L18.2428 4.78971C19.6878 4.91533 20.8585 6.01497 21.0742 7.44937C21.5279 10.4661 21.5279 13.5337 21.0742 16.5504C20.8585 17.9848 19.6878 19.0844 18.2428 19.21L16.7325 19.3413C13.5835 19.6151 10.4166 19.6151 7.26759 19.3413L5.75736 19.21C4.31229 19.0844 3.14162 17.9848 2.92592 16.5504C2.47228 13.5337 2.47228 10.4661 2.92592 7.44936C3.14162 6.01497 4.31229 4.91533 5.75736 4.78971L7.26759 4.65843ZM16.6026 6.15279C13.54 5.88657 10.4601 5.88657 7.3975 6.1528L5.88726 6.28408C5.13293 6.34965 4.52184 6.92367 4.40925 7.67242C4.15171 9.38504 4.04792 11.1149 4.09786 12.8414L7.96973 8.96955C8.11579 8.82349 8.31562 8.74413 8.52209 8.7502C8.72856 8.75627 8.92338 8.84722 9.06061 9.00161L12.7321 13.132L15.2629 12.2884C15.5459 12.194 15.8579 12.2764 16.0575 12.4982L19.5767 16.4083C19.582 16.3815 19.5868 16.3546 19.5909 16.3273C20.0223 13.4585 20.0223 10.5413 19.5909 7.67242C19.4783 6.92367 18.8672 6.34965 18.1129 6.28408L16.6026 6.15279ZM18.6202 17.5879L15.2712 13.8667L12.7372 14.7114C12.4526 14.8063 12.1388 14.7224 11.9395 14.4982L8.46794 10.5927L4.22426 14.8363C4.27304 15.3344 4.3347 15.8316 4.40925 16.3273C4.52184 17.0761 5.13293 17.6501 5.88726 17.7157L7.3975 17.847C10.4601 18.1132 13.54 18.1132 16.6026 17.847L18.1129 17.7157C18.2916 17.7001 18.4623 17.6561 18.6202 17.5879Z" fill="white"/>
</svg>
