<svg width="current" height="current" viewBox="0 0 24 25" fill="none" xmlns="http://www.w3.org/2000/svg">
<path fill-rule="evenodd" clip-rule="evenodd" d="M17.2901 0.313814C17.0855 0.112882 16.808 0 16.5187 0C16.2294 0 15.9519 0.112882 15.7473 0.313814L2.37655 13.4458C2.2395 13.5804 2.14143 13.7484 2.09245 13.9326L0.6379 19.4018C0.540024 19.7698 0.648153 20.1612 0.922008 20.4302C1.19586 20.6992 1.59438 20.8054 1.9691 20.7092L7.53772 19.2807C7.72525 19.2326 7.89635 19.1362 8.03341 19.0016L21.4042 5.86965C21.8302 5.45123 21.8302 4.77284 21.4042 4.35442L17.2901 0.313814ZM4.12863 14.7555L16.5187 2.58666L19.09 5.11204L6.69993 17.2808L3.21954 18.1737L4.12863 14.7555Z" fill="white"/>
<path d="M1.09091 22.8571C0.488417 22.8571 0 23.3368 0 23.9286C0 24.5203 0.488417 25 1.09091 25H22.9091C23.5116 25 24 24.5203 24 23.9286C24 23.3368 23.5116 22.8571 22.9091 22.8571H1.09091Z" fill="white"/>
</svg>
