<svg width="33" height="26" viewBox="0 0 33 26" fill="none" xmlns="http://www.w3.org/2000/svg">
<path d="M10.8832 15.1212C10.8832 14.3979 11.4685 13.8115 12.1904 13.8115H15.2406V10.7555C15.2406 10.0322 15.8259 9.44577 16.5479 9.44577C17.2698 9.44577 17.8551 10.0322 17.8551 10.7555V13.8115H20.9053C21.6273 13.8115 22.2125 14.3979 22.2125 15.1212C22.2125 15.8445 21.6273 16.4309 20.9053 16.4309H17.8551V19.4869C17.8551 20.2102 17.2698 20.7966 16.5479 20.7966C15.8259 20.7966 15.2406 20.2102 15.2406 19.4869V16.4309H12.1904C11.4685 16.4309 10.8832 15.8445 10.8832 15.1212Z" fill="#00DBDE" fill-opacity="0.5"/>
<path fill-rule="evenodd" clip-rule="evenodd" d="M32.5157 8.56702C33.2074 12.9087 33.1578 17.3366 32.3691 21.6616C32.0163 23.5959 30.4017 25.0458 28.4441 25.1861L25.5894 25.3907C19.5694 25.8222 13.5264 25.8222 7.5064 25.3907L4.86752 25.2016C2.78287 25.0521 1.06342 23.5081 0.687774 21.4483C-0.0733205 17.2748 -0.203619 13.0104 0.30125 8.79817L0.776185 4.83565C1.05804 2.48409 3.04922 0.714355 5.41319 0.714355H9.40732C11.3555 0.714355 12.9787 2.10869 13.3369 3.95567L27.8288 3.95567C30.1057 3.95567 32.0452 5.61326 32.4041 7.866L32.5157 8.56702ZM29.7972 21.1908C30.5327 17.1576 30.579 13.0286 29.9339 8.97989L29.8223 8.27888C29.6659 7.29733 28.8208 6.57509 27.8288 6.57509H12.6425C11.6227 6.57509 10.7961 5.74685 10.7961 4.72516C10.7961 3.95672 10.1743 3.33378 9.40732 3.33378H5.41319C4.37257 3.33378 3.49607 4.11281 3.372 5.14796L2.89706 9.11048C2.42345 13.062 2.54568 17.0624 3.25965 20.9775C3.42093 21.8618 4.15912 22.5247 5.05409 22.5888L7.69297 22.778C13.5887 23.2006 19.507 23.2006 25.4028 22.778L28.2576 22.5733C29.0255 22.5183 29.6588 21.9496 29.7972 21.1908Z" fill="#00DBDE" fill-opacity="0.5"/>
</svg>
