<svg width="22" height="25" viewBox="0 0 22 25" fill="none" xmlns="http://www.w3.org/2000/svg">
<path fill-rule="evenodd" clip-rule="evenodd" d="M13.8286 4.16667C13.8286 1.86548 15.6578 0 17.9143 0C20.1708 0 22 1.86548 22 4.16667C22 6.46785 20.1708 8.33333 17.9143 8.33333C16.7079 8.33333 15.6236 7.80012 14.8757 6.95218L11.4597 8.85239L7.63733 11.0799C7.97723 11.6877 8.17143 12.3912 8.17143 13.141C8.17143 13.521 8.12156 13.889 8.02815 14.2388L14.8757 18.0478C15.6236 17.1999 16.7079 16.6667 17.9143 16.6667C20.1708 16.6667 22 18.5321 22 20.8333C22 23.1345 20.1708 25 17.9143 25C15.6578 25 13.8286 23.1345 13.8286 20.8333C13.8286 20.4534 13.8784 20.0853 13.9719 19.7356L7.12428 15.9265C6.37638 16.7745 5.29211 17.3077 4.08571 17.3077C1.82924 17.3077 0 15.4422 0 13.141C0 10.8398 1.82924 8.97436 4.08571 8.97436C4.90371 8.97436 5.66556 9.21951 6.30448 9.64169L10.5403 7.17325L13.9719 5.26442C13.8784 4.91467 13.8286 4.54661 13.8286 4.16667ZM17.9143 1.92308C16.6993 1.92308 15.7143 2.92757 15.7143 4.16667C15.7143 5.40577 16.6993 6.41026 17.9143 6.41026C19.1293 6.41026 20.1143 5.40577 20.1143 4.16667C20.1143 2.92757 19.1293 1.92308 17.9143 1.92308ZM4.08571 10.8974C2.87069 10.8974 1.88571 11.9019 1.88571 13.141C1.88571 14.3801 2.87069 15.3846 4.08571 15.3846C5.30074 15.3846 6.28571 14.3801 6.28571 13.141C6.28571 11.9019 5.30074 10.8974 4.08571 10.8974ZM15.7143 20.8333C15.7143 19.5942 16.6993 18.5897 17.9143 18.5897C19.1293 18.5897 20.1143 19.5942 20.1143 20.8333C20.1143 22.0724 19.1293 23.0769 17.9143 23.0769C16.6993 23.0769 15.7143 22.0724 15.7143 20.8333Z" fill="white"/>
</svg>
