<svg width="12" height="17" viewBox="0 0 12 17" fill="none" xmlns="http://www.w3.org/2000/svg">
<path d="M4.45161 0.714355C4.13093 0.714355 3.87097 0.979752 3.87097 1.30713V1.89991H0.580645C0.259964 1.89991 0 2.16531 0 2.49269C0 2.82008 0.259964 3.08547 0.580645 3.08547H11.4194C11.74 3.08547 12 2.82008 12 2.49269C12 2.16531 11.74 1.89991 11.4194 1.89991H8.12903V1.30713C8.12903 0.979752 7.86907 0.714355 7.54839 0.714355H4.45161Z" fill="#D5DDE2" fill-opacity="0.5"/>
<path d="M4.45161 7.35348C4.77229 7.35348 5.03226 7.61888 5.03226 7.94626L5.03226 13.4789C5.03226 13.8063 4.77229 14.0716 4.45161 14.0716C4.13093 14.0716 3.87097 13.8063 3.87097 13.4789L3.87097 7.94626C3.87097 7.61888 4.13093 7.35348 4.45161 7.35348Z" fill="#D5DDE2" fill-opacity="0.5"/>
<path d="M8.12903 7.94626C8.12903 7.61888 7.86907 7.35348 7.54839 7.35348C7.22771 7.35348 6.96774 7.61888 6.96774 7.94626V13.4789C6.96774 13.8063 7.22771 14.0716 7.54839 14.0716C7.86907 14.0716 8.12903 13.8063 8.12903 13.4789V7.94626Z" fill="#D5DDE2" fill-opacity="0.5"/>
<path fill-rule="evenodd" clip-rule="evenodd" d="M1.3482 5.19354C1.38087 4.89333 1.62943 4.66622 1.92529 4.66622H10.0747C10.3706 4.66622 10.6191 4.89333 10.6518 5.19354L10.8067 6.61727C11.0876 9.19809 11.0876 11.8027 10.8067 14.3836L10.7915 14.5237C10.68 15.5482 9.90228 16.365 8.90238 16.5079C6.97685 16.7832 5.02314 16.7832 3.09761 16.5079C2.09771 16.365 1.32 15.5482 1.2085 14.5237L1.19325 14.3836C0.912357 11.8027 0.912357 9.19809 1.19325 6.61727L1.3482 5.19354ZM2.445 5.85178L2.34743 6.74819C2.07602 9.242 2.07602 11.7588 2.34743 14.2526L2.36269 14.3928C2.41557 14.8787 2.78441 15.2661 3.25862 15.3338C5.07733 15.5938 6.92266 15.5938 8.74137 15.3338C9.21559 15.2661 9.58443 14.8787 9.63731 14.3928L9.65256 14.2526C9.92398 11.7588 9.92398 9.242 9.65256 6.74819L9.555 5.85178H2.445Z" fill="#D5DDE2" fill-opacity="0.5"/>
</svg>
