<svg width="current" height="current" viewBox="0 0 24 24" fill="none" xmlns="http://www.w3.org/2000/svg">
<path fill-rule="evenodd" clip-rule="evenodd" d="M8.92906 4.47033C7.65784 4.32825 6.34193 4.32825 5.07071 4.47033C4.76182 4.50485 4.51823 4.74944 4.48348 5.0465C4.33168 6.34444 4.33168 7.65565 4.48348 8.95359C4.51823 9.25065 4.76182 9.49524 5.07071 9.52976C6.34193 9.67184 7.65784 9.67184 8.92906 9.52976C9.23795 9.49524 9.48154 9.25065 9.51629 8.95359C9.66809 7.65565 9.66809 6.34444 9.51629 5.0465C9.48154 4.74944 9.23795 4.50485 8.92906 4.47033ZM4.9041 2.97961C6.28605 2.82516 7.71372 2.82516 9.09567 2.97961C10.0865 3.09035 10.889 3.87034 11.0061 4.87225C11.1715 6.28596 11.1715 7.71413 11.0061 9.12784C10.889 10.1298 10.0865 10.9097 9.09567 11.0205C7.71372 11.1749 6.28605 11.1749 4.90411 11.0205C3.91327 10.9097 3.11082 10.1298 2.99364 9.12784C2.82829 7.71413 2.82829 6.28596 2.99364 4.87225C3.11082 3.87034 3.91326 3.09035 4.9041 2.97961Z" fill="white"/>
<path fill-rule="evenodd" clip-rule="evenodd" d="M8.92906 14.4703C7.65784 14.3282 6.34193 14.3282 5.07071 14.4703C4.76182 14.5049 4.51823 14.7494 4.48348 15.0465C4.33168 16.3444 4.33168 17.6557 4.48348 18.9536C4.51823 19.2506 4.76182 19.4952 5.07071 19.5298C6.34193 19.6718 7.65784 19.6718 8.92906 19.5298C9.23795 19.4952 9.48154 19.2506 9.51629 18.9536C9.66809 17.6556 9.66809 16.3444 9.51629 15.0465C9.48154 14.7494 9.23795 14.5049 8.92906 14.4703ZM4.9041 12.9796C6.28605 12.8252 7.71372 12.8252 9.09567 12.9796C10.0865 13.0904 10.889 13.8703 11.0061 14.8722C11.1715 16.286 11.1715 17.7141 11.0061 19.1278C10.889 20.1298 10.0865 20.9097 9.09567 21.0205C7.71372 21.1749 6.28605 21.1749 4.90411 21.0205C3.91327 20.9097 3.11082 20.1298 2.99364 19.1278C2.82829 17.7141 2.82829 16.286 2.99364 14.8722C3.11082 13.8703 3.91326 13.0904 4.9041 12.9796Z" fill="white"/>
<path fill-rule="evenodd" clip-rule="evenodd" d="M18.9291 4.47033C17.6578 4.32825 16.3419 4.32825 15.0707 4.47033C14.7618 4.50485 14.5182 4.74944 14.4835 5.0465C14.3317 6.34444 14.3317 7.65565 14.4835 8.95359C14.5182 9.25065 14.7618 9.49524 15.0707 9.52976C16.3419 9.67184 17.6578 9.67184 18.9291 9.52976C19.2379 9.49524 19.4815 9.25065 19.5163 8.95359C19.6681 7.65565 19.6681 6.34444 19.5163 5.0465C19.4815 4.74944 19.2379 4.50485 18.9291 4.47033ZM14.9041 2.97961C16.2861 2.82516 17.7137 2.82516 19.0957 2.97961C20.0865 3.09035 20.889 3.87034 21.0061 4.87225C21.1715 6.28596 21.1715 7.71413 21.0061 9.12784C20.889 10.1298 20.0865 10.9097 19.0957 11.0205C17.7137 11.1749 16.2861 11.1749 14.9041 11.0205C13.9133 10.9097 13.1108 10.1298 12.9936 9.12784C12.8283 7.71413 12.8283 6.28596 12.9936 4.87225C13.1108 3.87034 13.9133 3.09035 14.9041 2.97961Z" fill="white"/>
<path fill-rule="evenodd" clip-rule="evenodd" d="M18.9291 14.4703C17.6578 14.3282 16.3419 14.3282 15.0707 14.4703C14.7618 14.5049 14.5182 14.7494 14.4835 15.0465C14.3317 16.3444 14.3317 17.6557 14.4835 18.9536C14.5182 19.2506 14.7618 19.4952 15.0707 19.5298C16.3419 19.6718 17.6578 19.6718 18.9291 19.5298C19.2379 19.4952 19.4815 19.2506 19.5163 18.9536C19.6681 17.6556 19.6681 16.3444 19.5163 15.0465C19.4815 14.7494 19.2379 14.5049 18.9291 14.4703ZM14.9041 12.9796C16.2861 12.8252 17.7137 12.8252 19.0957 12.9796C20.0865 13.0904 20.889 13.8703 21.0061 14.8722C21.1715 16.286 21.1715 17.7141 21.0061 19.1278C20.889 20.1298 20.0865 20.9097 19.0957 21.0205C17.7137 21.1749 16.2861 21.1749 14.9041 21.0205C13.9133 20.9097 13.1108 20.1298 12.9936 19.1278C12.8283 17.7141 12.8283 16.286 12.9936 14.8722C13.1108 13.8703 13.9133 13.0904 14.9041 12.9796Z" fill="white"/>
</svg>
