<svg width="30" height="25" viewBox="0 0 30 25" fill="none" xmlns="http://www.w3.org/2000/svg">
<path fill-rule="evenodd" clip-rule="evenodd" d="M0 8.24103C0 3.585 4.06139 0 8.82857 0C11.286 0 13.4483 1.15886 15 2.65833C16.5517 1.15886 18.714 0 21.1714 0C25.9386 0 30 3.585 30 8.24103C30 11.4305 28.6476 14.2352 26.774 16.6061C24.9036 18.9729 22.4571 20.9815 20.1145 22.6137C19.2198 23.2372 18.3146 23.8123 17.4862 24.2366C16.7083 24.635 15.8138 25 15 25C14.1862 25 13.2917 24.635 12.5138 24.2366C11.6854 23.8123 10.7802 23.2372 9.88548 22.6137C7.54294 20.9815 5.09635 18.9729 3.22598 16.6061C1.35237 14.2352 0 11.4305 0 8.24103ZM8.82857 2.58621C5.26415 2.58621 2.57143 5.22259 2.57143 8.24103C2.57143 10.6608 3.59278 12.9138 5.23901 14.9969C6.88848 17.0842 9.10787 18.9257 11.3498 20.4879C12.1982 21.079 12.9973 21.5819 13.6808 21.932C14.4148 22.308 14.84 22.4138 15 22.4138C15.16 22.4138 15.5852 22.308 16.3192 21.932C17.0027 21.5819 17.8018 21.079 18.6502 20.4879C20.8921 18.9257 23.1115 17.0842 24.761 14.9969C26.4072 12.9138 27.4286 10.6608 27.4286 8.24103C27.4286 5.22259 24.7359 2.58621 21.1714 2.58621C19.1243 2.58621 17.2128 3.81625 16.0193 5.37745C15.7759 5.69579 15.3993 5.88235 15 5.88235C14.6007 5.88235 14.2241 5.69579 13.9807 5.37745C12.7872 3.81625 10.8757 2.58621 8.82857 2.58621Z" fill="#FC00FF" fill-opacity="0.5"/>
</svg>
