<svg width="33" height="25" viewBox="0 0 33 25" fill="none" xmlns="http://www.w3.org/2000/svg">
<path d="M10.8832 14.4068C10.8832 13.6835 11.4685 13.0971 12.1904 13.0971H15.2406V10.0411C15.2406 9.31779 15.8259 8.73142 16.5479 8.73142C17.2698 8.73142 17.8551 9.31779 17.8551 10.0411V13.0971H20.9053C21.6273 13.0971 22.2125 13.6835 22.2125 14.4068C22.2125 15.1302 21.6273 15.7165 20.9053 15.7165H17.8551V18.7725C17.8551 19.4959 17.2698 20.0823 16.5479 20.0823C15.8259 20.0823 15.2406 19.4959 15.2406 18.7725V15.7165H12.1904C11.4685 15.7165 10.8832 15.1302 10.8832 14.4068Z" fill="#00DBDE"/>
<path fill-rule="evenodd" clip-rule="evenodd" d="M32.5157 7.85267C33.2074 12.1943 33.1578 16.6222 32.3691 20.9473C32.0163 22.8815 30.4017 24.3314 28.4441 24.4717L25.5894 24.6764C19.5694 25.1079 13.5264 25.1079 7.5064 24.6764L4.86752 24.4872C2.78287 24.3378 1.06342 22.7938 0.687774 20.7339C-0.0733205 16.5605 -0.203619 12.2961 0.30125 8.08381L0.776185 4.1213C1.05804 1.76973 3.04922 0 5.41319 0H9.40732C11.3555 0 12.9787 1.39433 13.3369 3.24131L27.8288 3.24131C30.1057 3.24131 32.0452 4.8989 32.4041 7.15165L32.5157 7.85267ZM29.7972 20.4765C30.5327 16.4433 30.579 12.3142 29.9339 8.26554L29.8223 7.56452C29.6659 6.58297 28.8208 5.86074 27.8288 5.86074H12.6425C11.6227 5.86074 10.7961 5.03249 10.7961 4.0108C10.7961 3.24237 10.1743 2.61942 9.40732 2.61942H5.41319C4.37257 2.61942 3.49607 3.39845 3.372 4.4336L2.89706 8.39612C2.42345 12.3476 2.54568 16.348 3.25965 20.2631C3.42093 21.1474 4.15912 21.8103 5.05409 21.8745L7.69297 22.0636C13.5887 22.4862 19.507 22.4862 25.4028 22.0636L28.2576 21.859C29.0255 21.804 29.6588 21.2352 29.7972 20.4765Z" fill="#00DBDE"/>
</svg>
