<svg width="current" height="current" viewBox="0 0 27 25" fill="none" xmlns="http://www.w3.org/2000/svg">
<path fill-rule="evenodd" clip-rule="evenodd" d="M2.64478 16.9417C-0.651211 8.85154 5.30056 0 14.0364 0H14.5077C21.0408 0 26.337 5.2962 26.337 11.8294C26.337 19.1033 20.4404 25 13.1664 25H1.69974C1.23309 25 0.817251 24.7055 0.662372 24.2653C0.507493 23.8251 0.647303 23.3351 1.01115 23.0429L3.9019 20.7213C4.02829 20.6198 4.07301 20.4473 4.01184 20.2972L2.64478 16.9417ZM14.0364 2.19941C6.86255 2.19941 1.97499 9.46826 4.68164 16.1119L6.0487 19.4674C6.47685 20.5183 6.16387 21.7256 5.27909 22.4362L4.82535 22.8006H13.1664C19.2256 22.8006 24.1376 17.8886 24.1376 11.8294C24.1376 6.5109 19.8261 2.19941 14.5077 2.19941H14.0364Z" fill="white"/>
</svg>
