<svg width="current" height="current" viewBox="0 0 24 24" fill="none" xmlns="http://www.w3.org/2000/svg">
<path fill-rule="evenodd" clip-rule="evenodd" d="M18.0589 4.70802C17.6564 3.89183 16.8019 3.39846 15.8938 3.45798C15.7711 3.46603 15.6313 3.49231 15.3828 3.55395L14.9368 7.29311L18.0548 6.45764C18.1719 6.42626 18.2416 6.40748 18.2936 6.39161C18.3266 6.38157 18.3406 6.37616 18.3439 6.37479C18.433 6.33001 18.4869 6.23658 18.4812 6.13708C18.4807 6.13346 18.4784 6.11864 18.4706 6.08511C18.4583 6.03213 18.4398 5.96239 18.4084 5.84527C18.2187 5.13731 18.1487 4.89007 18.0589 4.70802ZM13.3763 7.71124L13.8227 3.96816L9.10472 5.23234L8.65829 8.97543L13.3763 7.71124ZM7.09779 9.39357L7.54422 5.65051C6.72711 5.86976 6.14305 6.03001 5.69349 6.19522C5.22008 6.36921 4.96614 6.5249 4.79067 6.70037C4.5114 6.97964 4.31055 7.32751 4.20833 7.70901C4.14411 7.9487 4.13624 8.24647 4.22227 8.74344C4.28483 9.10483 4.38934 9.53305 4.53306 10.0808L7.09779 9.39357ZM3.25006 11.0929C3.02424 10.2501 2.84245 9.56656 2.74426 8.99931C2.6404 8.3994 2.61562 7.85755 2.75944 7.32079C2.92981 6.68495 3.26455 6.10517 3.73001 5.63971C4.12295 5.24677 4.6046 4.99731 5.17606 4.78729C5.73051 4.58353 6.43494 4.39478 7.30838 4.16076L8.08912 3.95156C8.17661 3.90813 8.27325 3.88143 8.37441 3.87512L14.3459 2.27506C14.3532 2.27311 14.3604 2.27117 14.3676 2.26923C14.4553 2.22574 14.5521 2.19903 14.6534 2.19276C15.1273 2.06677 15.4742 1.98226 15.7957 1.9612C17.3091 1.862 18.7334 2.68427 19.4042 4.04458C19.5682 4.37708 19.6762 4.78084 19.8348 5.37321C19.8422 5.40074 19.8497 5.42868 19.8573 5.45704C19.8614 5.47246 19.8656 5.48795 19.8698 5.50349C19.9171 5.67914 19.9664 5.86192 19.9778 6.037C20.0241 6.74329 19.6404 7.40793 19.0056 7.72098C18.8482 7.79858 18.6653 7.8473 18.4895 7.89412C18.474 7.89827 18.4585 7.9024 18.443 7.90653L9.69732 10.2499L16.0521 10.2499C16.9505 10.2499 17.6998 10.2499 18.2945 10.3299C18.9223 10.4143 19.4891 10.5999 19.9446 11.0554C20.4001 11.5109 20.5857 12.0777 20.6701 12.7055C20.7501 13.3002 20.7501 14.0495 20.7501 14.9479V16.0548C20.7501 17.4224 20.7501 18.5247 20.6335 19.3917C20.5125 20.2918 20.2536 21.0497 19.6517 21.6516C19.0498 22.2535 18.2919 22.5124 17.3918 22.6334C16.5248 22.75 15.4225 22.75 14.0549 22.7499H9.94519C8.5776 22.75 7.47528 22.75 6.60831 22.6334C5.7082 22.5124 4.95033 22.2535 4.34841 21.6516C3.74649 21.0497 3.4876 20.2918 3.36658 19.3917C3.25002 18.5247 3.25004 17.4224 3.25006 16.0548L3.25006 11.0929ZM4.75006 11.7499V15.9999C4.75006 17.4354 4.75165 18.4365 4.85321 19.1918C4.95186 19.9256 5.13231 20.3142 5.40907 20.5909C5.68583 20.8677 6.0744 21.0481 6.80818 21.1468C7.56353 21.2483 8.56464 21.2499 10.0001 21.2499H14.0001C15.4355 21.2499 16.4366 21.2483 17.1919 21.1468C17.9257 21.0481 18.3143 20.8677 18.5911 20.5909C18.8678 20.3142 19.0483 19.9256 19.1469 19.1918C19.2485 18.4365 19.2501 17.4354 19.2501 15.9999V14.9999C19.2501 14.0359 19.2485 13.3884 19.1835 12.9053C19.1215 12.4439 19.0143 12.2464 18.8839 12.1161C18.7536 11.9857 18.5561 11.8785 18.0947 11.8165C17.6116 11.7515 16.9641 11.7499 16.0001 11.7499H4.75006ZM13.1987 14.5803C13.2142 14.5915 13.2298 14.6027 13.2454 14.6139C13.2594 14.6239 13.2734 14.6339 13.2873 14.6439C13.6483 14.9026 13.9871 15.1454 14.2278 15.382C14.4979 15.6474 14.7501 16.0052 14.7501 16.4999C14.7501 16.9947 14.4979 17.3525 14.2278 17.6179C13.9871 17.8545 13.6482 18.0973 13.2873 18.356L13.2454 18.386C13.2298 18.3972 13.2142 18.4084 13.1987 18.4195C12.8369 18.6791 12.4919 18.9264 12.1968 19.072C11.8818 19.2274 11.3637 19.3932 10.8678 19.0432C10.4372 18.7393 10.3341 18.2483 10.2929 17.9047C10.25 17.5467 10.25 17.0794 10.2501 16.5465V16.4533C10.25 15.9204 10.25 15.4532 10.2929 15.0952C10.3341 14.7516 10.4372 14.2606 10.8678 13.9567C11.3637 13.6066 11.8818 13.7724 12.1968 13.9278C12.4919 14.0734 12.8369 14.3208 13.1987 14.5803ZM11.7692 15.412C11.751 15.6617 11.7501 16.0049 11.7501 16.4999C11.7501 16.995 11.751 17.3382 11.7692 17.5879C11.9179 17.4909 12.11 17.3544 12.3715 17.1669C12.7894 16.8673 13.0293 16.6926 13.1765 16.548C13.1957 16.5291 13.2109 16.5131 13.2226 16.4999C13.2109 16.4867 13.1957 16.4708 13.1765 16.4519C13.0293 16.3073 12.7894 16.1326 12.3715 15.833C12.11 15.6455 11.9179 15.5089 11.7692 15.412Z" fill="white"/>
</svg>
