<svg width="18" height="18" viewBox="0 0 18 18" fill="none" xmlns="http://www.w3.org/2000/svg">
<path fill-rule="evenodd" clip-rule="evenodd" d="M12.3063 1.20084C12.1784 1.07224 12.005 1 11.8242 1C11.6434 1 11.4699 1.07224 11.3421 1.20084L2.98535 9.60531C2.89969 9.69146 2.83839 9.79901 2.80778 9.91689L1.89869 13.4172C1.83751 13.6527 1.9051 13.9032 2.07625 14.0753C2.24741 14.2475 2.49649 14.3154 2.73068 14.2539L6.21107 13.3396C6.32828 13.3088 6.43522 13.2472 6.52088 13.161L14.8776 4.75658C15.1439 4.48879 15.1439 4.05462 14.8776 3.78683L12.3063 1.20084ZM4.0804 10.4435L11.8242 2.65546L13.4312 4.2717L5.68746 12.0597L3.51221 12.6312L4.0804 10.4435Z" fill="white"/>
<path d="M2.18182 15.6286C1.80526 15.6286 1.5 15.9356 1.5 16.3143C1.5 16.693 1.80526 17 2.18182 17H15.8182C16.1947 17 16.5 16.693 16.5 16.3143C16.5 15.9356 16.1947 15.6286 15.8182 15.6286H2.18182Z" fill="white"/>
</svg>
