<svg width="16" height="17" viewBox="0 0 16 17" fill="none" xmlns="http://www.w3.org/2000/svg">
<g clip-path="url(#clip0_166_633)">
<path fill-rule="evenodd" clip-rule="evenodd" d="M6.81578 2.18675C6.64924 2.18675 6.49551 2.27429 6.41308 2.41607L3.06099 8.18121C2.61664 8.94542 2.43017 9.82768 2.52822 10.7019L2.88201 13.8565C2.94496 14.4177 3.39465 14.8623 3.96689 14.929L6.08781 15.1762C7.48793 15.3394 8.90756 15.1979 10.2455 14.7619C10.9062 14.5466 11.4355 14.0552 11.6904 13.4203L13.3976 9.16946C13.4394 9.06553 13.4682 8.95706 13.4836 8.84639C13.613 7.9118 12.778 7.12343 11.8296 7.28483L8.40759 7.86718C7.32662 8.05114 6.393 7.11647 6.60397 6.06154L7.2706 2.72817C7.32669 2.44767 7.10751 2.18675 6.81578 2.18675ZM5.10736 1.68722C5.45708 1.08575 6.10926 0.714362 6.81576 0.714355C8.05341 0.714345 8.98328 1.82128 8.74529 3.0113L8.07867 6.34466C8.07581 6.35895 8.07735 6.36767 8.07936 6.37393C8.08183 6.38165 8.0869 6.39069 8.09528 6.39907C8.10365 6.40745 8.11276 6.41262 8.12058 6.41521C8.12693 6.41731 8.1358 6.419 8.15044 6.41651L11.5725 5.83415C13.5222 5.50235 15.2388 7.1231 14.9726 9.04444C14.9411 9.27196 14.8818 9.49495 14.796 9.7086L13.0888 13.9595C12.6708 15.0004 11.8031 15.806 10.7198 16.1591C9.17209 16.6634 7.52992 16.8271 5.9103 16.6383L3.78938 16.3911C2.52287 16.2435 1.52758 15.2595 1.38826 14.0173L1.03447 10.8628C0.901817 9.67995 1.1541 8.4863 1.75527 7.45236L5.10736 1.68722Z" fill="#5A7687"/>
</g>
<defs>
<clipPath id="clip0_166_633">
<rect width="16" height="16" fill="white" transform="translate(0 0.714355)"/>
</clipPath>
</defs>
</svg>
