<svg width="30" height="25" viewBox="0 0 30 25" fill="none" xmlns="http://www.w3.org/2000/svg">
<path fill-rule="evenodd" clip-rule="evenodd" d="M8.82857 0C4.06139 0 0 3.585 0 8.24103C0 11.4305 1.35237 14.2352 3.22598 16.6061C5.09635 18.9729 7.54294 20.9815 9.88548 22.6137C10.7802 23.2372 11.6854 23.8123 12.5138 24.2366C13.2917 24.635 14.1862 25 15 25C15.8138 25 16.7083 24.635 17.4862 24.2366C18.3146 23.8123 19.2198 23.2372 20.1145 22.6137C22.4571 20.9815 24.9036 18.9729 26.774 16.6061C28.6476 14.2352 30 11.4305 30 8.24103C30 3.585 25.9386 0 21.1714 0C18.714 0 16.5517 1.15886 15 2.65833C13.4483 1.15886 11.286 0 8.82857 0ZM2.57143 8.24103C2.57143 5.22259 5.26415 2.58621 8.82857 2.58621C10.7113 2.58621 12.4794 3.62666 13.6797 5.00828L12.425 7.36569C12.1651 7.85404 12.3213 8.44905 12.7924 8.76518L16.4104 11.193L13.2508 14.6561C12.8497 15.0958 12.8764 15.7545 13.3119 16.1637L15.5061 18.2251L14.43 22.2692C14.23 22.1946 13.9813 22.0859 13.6808 21.932C12.9973 21.5819 12.1982 21.079 11.3498 20.4879C9.10787 18.9257 6.88848 17.0842 5.23901 14.9969C3.59278 12.9138 2.57143 10.6608 2.57143 8.24103ZM17.0308 21.5381C17.5352 21.2406 18.0816 20.884 18.6502 20.4879C20.8921 18.9257 23.1115 17.0842 24.761 14.9969C26.4072 12.9138 27.4286 10.6608 27.4286 8.24103C27.4286 5.22259 24.7359 2.58621 21.1714 2.58621C19.2502 2.58621 17.4485 3.66957 16.2475 5.0933L14.9606 7.51132L18.8077 10.0929C19.0761 10.273 19.2518 10.5522 19.2915 10.8615C19.3311 11.1709 19.2311 11.4818 19.016 11.7175L15.7284 15.3208L17.6215 17.0993C17.9143 17.3744 18.0321 17.7755 17.9313 18.1543L17.0308 21.5381Z" fill="#FC00FF" fill-opacity="0.5"/>
</svg>
