<svg width="current" height="current" viewBox="0 0 30 30" fill="none" xmlns="http://www.w3.org/2000/svg">
<g filter="url(#filter0_d_527_992)">
<path fill-rule="evenodd" clip-rule="evenodd" d="M15 25C20.5228 25 25 20.5228 25 15C25 9.47715 20.5228 5 15 5C9.47715 5 5 9.47715 5 15C5 20.5228 9.47715 25 15 25ZM16.0261 12.275C15.7888 12.1084 15.5201 11.936 15.2419 11.7668C14.1695 11.1147 13.6333 10.7886 13.1524 11.1496C12.6715 11.5107 12.6278 12.2664 12.5404 13.7779C12.5157 14.2053 12.5 14.6244 12.5 15C12.5 15.3757 12.5157 15.7947 12.5404 16.2222C12.6278 17.7337 12.6715 18.4894 13.1524 18.8504C13.6333 19.2115 14.1695 18.8854 15.2419 18.2333C15.5201 18.0641 15.7888 17.8917 16.0261 17.7251C16.2966 17.5352 16.5909 17.3073 16.8876 17.0652C17.9625 16.1884 18.5 15.7499 18.5 15C18.5 14.2502 17.9625 13.8117 16.8876 12.9348C16.5909 12.6928 16.2966 12.4649 16.0261 12.275Z" fill="white"/>
</g>
<defs>
<filter id="filter0_d_527_992" x="1" y="1" width="28" height="28" filterUnits="userSpaceOnUse" color-interpolation-filters="sRGB">
<feFlood flood-opacity="0" result="BackgroundImageFix"/>
<feColorMatrix in="SourceAlpha" type="matrix" values="0 0 0 0 0 0 0 0 0 0 0 0 0 0 0 0 0 0 127 0" result="hardAlpha"/>
<feOffset/>
<feGaussianBlur stdDeviation="2"/>
<feComposite in2="hardAlpha" operator="out"/>
<feColorMatrix type="matrix" values="0 0 0 0 0 0 0 0 0 0 0 0 0 0 0 0 0 0 0.25 0"/>
<feBlend mode="normal" in2="BackgroundImageFix" result="effect1_dropShadow_527_992"/>
<feBlend mode="normal" in="SourceGraphic" in2="effect1_dropShadow_527_992" result="shape"/>
</filter>
</defs>
</svg>
