<svg width="current" height="current" viewBox="0 0 24 25" fill="none" xmlns="http://www.w3.org/2000/svg">
<path fill-rule="evenodd" clip-rule="evenodd" d="M12 23C17.5228 23 22 18.5228 22 13C22 7.47715 17.5228 3 12 3C6.47715 3 2 7.47715 2 13C2 18.5228 6.47715 23 12 23ZM13.0261 10.275C12.7888 10.1084 12.5201 9.93601 12.2419 9.76684C11.1695 9.1147 10.6333 8.78863 10.1524 9.14964C9.6715 9.51065 9.62779 10.2664 9.54038 11.7779C9.51566 12.2053 9.5 12.6244 9.5 13C9.5 13.3757 9.51566 13.7947 9.54038 14.2222C9.62779 15.7337 9.6715 16.4894 10.1524 16.8504C10.6333 17.2115 11.1695 16.8854 12.2419 16.2333C12.5201 16.0641 12.7888 15.8917 13.0261 15.7251C13.2966 15.5352 13.5909 15.3073 13.8876 15.0652C14.9625 14.1884 15.5 13.7499 15.5 13C15.5 12.2502 14.9625 11.8117 13.8876 10.9348C13.5909 10.6928 13.2966 10.4649 13.0261 10.275Z" fill="white"/>
</svg>
