<svg width="current" height="current" viewBox="0 0 24 24" fill="none" xmlns="http://www.w3.org/2000/svg">
<path fill-rule="evenodd" clip-rule="evenodd" d="M12 22.2822C17.5228 22.2822 22 17.8051 22 12.2822C22 6.75938 17.5228 2.28223 12 2.28223C6.47715 2.28223 2 6.75938 2 12.2822C2 17.8051 6.47715 22.2822 12 22.2822ZM13.0261 9.55719C12.7888 9.39058 12.5201 9.21824 12.2419 9.04906C11.1695 8.39693 10.6333 8.07086 10.1524 8.43187C9.6715 8.79288 9.62779 9.54863 9.54038 11.0601C9.51566 11.4876 9.5 11.9066 9.5 12.2823C9.5 12.6579 9.51566 13.077 9.54038 13.5044C9.62779 15.0159 9.6715 15.7717 10.1524 16.1327C10.6333 16.4937 11.1695 16.1676 12.2419 15.5155C12.5201 15.3463 12.7888 15.174 13.0261 15.0074C13.2966 14.8174 13.5909 14.5895 13.8876 14.3475C14.9625 13.4706 15.5 13.0322 15.5 12.2823C15.5 11.5324 14.9625 11.094 13.8876 10.2171C13.5909 9.97501 13.2966 9.7471 13.0261 9.55719Z" fill="white"/>
</svg>
