<svg width="30" height="31" viewBox="0 0 30 31" fill="none" xmlns="http://www.w3.org/2000/svg">
<path fill-rule="evenodd" clip-rule="evenodd" d="M9.65999 11.4588L10.0196 14.6948L9.29194 14.7529C8.2773 14.8339 7.44879 15.5967 7.28431 16.6012C6.90523 18.9163 6.90523 21.2776 7.28431 23.5927C7.44879 24.5972 8.2773 25.3599 9.29194 25.4409L10.86 25.5661C13.3357 25.7638 15.8233 25.7638 18.299 25.5661L19.8671 25.4409C20.8817 25.3599 21.7102 24.5972 21.8747 23.5927C22.2538 21.2776 22.2538 18.9163 21.8747 16.6012C21.7102 15.5967 20.8817 14.8339 19.8671 14.7529L19.1393 14.6948L19.4989 11.4588C19.5413 11.0773 19.5413 10.6923 19.4989 10.3109L19.475 10.0961C19.2219 7.81823 17.4312 6.01588 15.155 5.74809C14.7726 5.70311 14.3863 5.70311 14.0039 5.74809C11.7277 6.01588 9.93695 7.81823 9.68385 10.0961L9.65999 10.3109C9.61761 10.6923 9.61761 11.0773 9.65999 11.4588ZM14.9713 7.30945C14.711 7.27882 14.4479 7.27882 14.1876 7.30945C12.6379 7.49177 11.4187 8.71887 11.2464 10.2697L11.2225 10.4845C11.1929 10.7506 11.1929 11.0191 11.2225 11.2852L11.5881 14.5753C13.5803 14.4476 15.5786 14.4476 17.5708 14.5753L17.9364 11.2852C17.966 11.0191 17.966 10.7506 17.9364 10.4845L17.9125 10.2697C17.7402 8.71887 16.521 7.49177 14.9713 7.30945ZM14.5795 18.5248C13.7112 18.5248 13.0073 19.2287 13.0073 20.0969C13.0073 20.9652 13.7112 21.6691 14.5795 21.6691C15.4477 21.6691 16.1516 20.9652 16.1516 20.0969C16.1516 19.2287 15.4477 18.5248 14.5795 18.5248Z" fill="#00DBDE"/>
</svg>
