<svg width="30" height="30" viewBox="0 0 30 30" fill="none" xmlns="http://www.w3.org/2000/svg">
<path fill-rule="evenodd" clip-rule="evenodd" d="M13.0418 6.60752C12.7824 6.64532 12.5284 6.71339 12.2848 6.81036C10.8351 7.38758 9.97498 8.88845 10.2099 10.4311L10.2425 10.6447C10.2828 10.9094 10.3523 11.1688 10.4497 11.4182L11.4086 13.8726C13.7031 13.7165 16.0063 13.7301 18.2993 13.9131L19.8674 14.0383C20.882 14.1193 21.7106 14.882 21.8751 15.8866C22.2542 18.2017 22.2542 20.5631 21.8751 22.8783C21.7106 23.8828 20.882 24.6456 19.8674 24.7266L18.2993 24.8518C15.8235 25.0494 13.3359 25.0494 10.8601 24.8518L9.292 24.7266C8.27733 24.6456 7.4488 23.8828 7.28432 22.8783C6.90523 20.5631 6.90523 18.2017 7.28432 15.8866C7.4488 14.882 8.27733 14.1193 9.292 14.0383L9.77055 14.0001L8.98535 11.9903C8.84567 11.6328 8.74602 11.2609 8.68823 10.8814L8.65569 10.6678C8.3106 8.40199 9.57388 6.19752 11.7033 5.34971C12.061 5.20729 12.4342 5.1073 12.8151 5.05178C15.0832 4.72131 17.2794 5.9988 18.1135 8.13362L18.1921 8.33488C18.3318 8.6924 18.4314 9.06429 18.4892 9.44375L18.6374 10.4164C18.681 10.7025 18.4843 10.9698 18.1982 11.0134L17.6801 11.0923C17.394 11.1359 17.1267 10.9392 17.0831 10.6531L16.935 9.68046C16.8947 9.41578 16.8252 9.15637 16.7278 8.907L16.6491 8.70573C16.0813 7.25228 14.586 6.38252 13.0418 6.60752ZM14.5797 17.8103C13.7114 17.8103 13.0075 18.5142 13.0075 19.3824C13.0075 20.2507 13.7114 20.9546 14.5797 20.9546C15.4479 20.9546 16.1518 20.2507 16.1518 19.3824C16.1518 18.5142 15.4479 17.8103 14.5797 17.8103Z" fill="#D5DDE2" fill-opacity="0.5"/>
</svg>
