<svg width="30" height="30" viewBox="0 0 30 30" fill="none" xmlns="http://www.w3.org/2000/svg">
<path fill-rule="evenodd" clip-rule="evenodd" d="M9.65999 10.7445L10.0196 13.9805L9.29194 14.0386C8.2773 14.1196 7.44879 14.8823 7.28431 15.8868C6.90523 18.2019 6.90523 20.5633 7.28431 22.8784C7.44879 23.8829 8.2773 24.6456 9.29194 24.7266L10.86 24.8518C13.3357 25.0494 15.8233 25.0494 18.299 24.8518L19.8671 24.7266C20.8817 24.6456 21.7102 23.8829 21.8747 22.8784C22.2538 20.5633 22.2538 18.2019 21.8747 15.8868C21.7102 14.8823 20.8817 14.1196 19.8671 14.0386L19.1393 13.9805L19.4989 10.7445C19.5413 10.363 19.5413 9.97799 19.4989 9.59651L19.475 9.38176C19.2219 7.10387 17.4312 5.30153 15.155 5.03374C14.7726 4.98875 14.3863 4.98875 14.0039 5.03374C11.7277 5.30153 9.93695 7.10387 9.68385 9.38176L9.65999 9.59651C9.61761 9.97799 9.61761 10.363 9.65999 10.7445ZM14.9713 6.59509C14.711 6.56447 14.4479 6.56447 14.1876 6.59509C12.6379 6.77741 11.4187 8.00451 11.2464 9.55538L11.2225 9.77012C11.1929 10.0362 11.1929 10.3048 11.2225 10.5709L11.5881 13.861C13.5803 13.7332 15.5786 13.7332 17.5708 13.861L17.9364 10.5709C17.966 10.3048 17.966 10.0362 17.9364 9.77012L17.9125 9.55538C17.7402 8.00451 16.521 6.77741 14.9713 6.59509ZM14.5795 17.8105C13.7112 17.8105 13.0073 18.5143 13.0073 19.3826C13.0073 20.2508 13.7112 20.9547 14.5795 20.9547C15.4477 20.9547 16.1516 20.2508 16.1516 19.3826C16.1516 18.5143 15.4477 17.8105 14.5795 17.8105Z" fill="#00DBDE"/>
</svg>
