<svg width="30" height="31" viewBox="0 0 30 31" fill="none" xmlns="http://www.w3.org/2000/svg">
<path fill-rule="evenodd" clip-rule="evenodd" d="M13.0418 7.32188C12.7824 7.35967 12.5284 7.42775 12.2848 7.52471C10.8351 8.10193 9.97498 9.60281 10.2099 11.1455L10.2425 11.3591C10.2828 11.6238 10.3523 11.8832 10.4497 12.1325L11.4086 14.5869C13.7031 14.4309 16.0063 14.4444 18.2993 14.6275L19.8674 14.7527C20.882 14.8337 21.7106 15.5964 21.8751 16.6009C22.2542 18.9161 22.2542 21.2775 21.8751 23.5927C21.7106 24.5972 20.882 25.3599 19.8674 25.4409L18.2993 25.5661C15.8235 25.7638 13.3359 25.7638 10.8601 25.5661L9.292 25.4409C8.27733 25.3599 7.4488 24.5972 7.28432 23.5927C6.90523 21.2775 6.90523 18.9161 7.28432 16.6009C7.4488 15.5964 8.27733 14.8337 9.292 14.7527L9.77055 14.7145L8.98535 12.7047C8.84567 12.3471 8.74602 11.9753 8.68823 11.5958L8.65569 11.3822C8.3106 9.11634 9.57388 6.91188 11.7033 6.06406C12.061 5.92164 12.4342 5.82165 12.8151 5.76614C15.0832 5.43567 17.2794 6.71315 18.1135 8.84797L18.1921 9.04923C18.3318 9.40675 18.4314 9.77864 18.4892 10.1581L18.6374 11.1308C18.681 11.4169 18.4843 11.6842 18.1982 11.7277L17.6801 11.8067C17.394 11.8502 17.1267 11.6536 17.0831 11.3675L16.935 10.3948C16.8947 10.1301 16.8252 9.87073 16.7278 9.62135L16.6491 9.42009C16.0813 7.96663 14.586 7.09688 13.0418 7.32188ZM14.5797 18.5246C13.7114 18.5246 13.0075 19.2285 13.0075 20.0968C13.0075 20.9651 13.7114 21.669 14.5797 21.669C15.4479 21.669 16.1518 20.9651 16.1518 20.0968C16.1518 19.2285 15.4479 18.5246 14.5797 18.5246Z" fill="#D5DDE2" fill-opacity="0.5"/>
</svg>
