<svg width="24" height="25" viewBox="0 0 24 25" fill="none" xmlns="http://www.w3.org/2000/svg">
<path d="M8.75012 12.7135C8.75012 10.9186 10.2052 9.46351 12.0001 9.46351C13.795 9.46351 15.2501 10.9186 15.2501 12.7135C15.2501 14.5084 13.795 15.9635 12.0001 15.9635C10.2052 15.9635 8.75012 14.5084 8.75012 12.7135Z" fill="white"/>
<path fill-rule="evenodd" clip-rule="evenodd" d="M11.4608 2.55202C11.7557 2.24698 12.2446 2.24698 12.5394 2.55202L15.1117 5.21351H18.7501C19.1643 5.21351 19.5001 5.5493 19.5001 5.96351V9.6019L22.1616 12.1742C22.4667 12.469 22.4667 12.958 22.1616 13.2528L19.5001 15.8251V19.4635C19.5001 19.8777 19.1643 20.2135 18.7501 20.2135H15.1117L12.5394 22.875C12.2446 23.18 11.7557 23.18 11.4608 22.875L8.88852 20.2135H5.25013C4.83592 20.2135 4.50013 19.8777 4.50013 19.4635V15.8251L1.83864 13.2528C1.5336 12.958 1.5336 12.469 1.83864 12.1742L4.50013 9.6019V5.96351C4.50013 5.5493 4.83592 5.21351 5.25013 5.21351H8.88852L11.4608 2.55202ZM12.0001 7.96351C9.37677 7.96351 7.25012 10.0902 7.25012 12.7135C7.25012 15.3369 9.37677 17.4635 12.0001 17.4635C14.6235 17.4635 16.7501 15.3369 16.7501 12.7135C16.7501 10.0902 14.6235 7.96351 12.0001 7.96351Z" fill="white"/>
</svg>
