<svg width="24" height="24" viewBox="0 0 24 24" fill="none" xmlns="http://www.w3.org/2000/svg">
<path d="M8.75012 12.0001C8.75012 10.2052 10.2052 8.75013 12.0001 8.75013C13.795 8.75013 15.2501 10.2052 15.2501 12.0001C15.2501 13.7951 13.795 15.2501 12.0001 15.2501C10.2052 15.2501 8.75012 13.7951 8.75012 12.0001Z" fill="white"/>
<path fill-rule="evenodd" clip-rule="evenodd" d="M11.4608 1.83864C11.7557 1.5336 12.2446 1.5336 12.5394 1.83864L15.1117 4.50013H18.7501C19.1643 4.50013 19.5001 4.83592 19.5001 5.25013V8.88853L22.1616 11.4608C22.4667 11.7557 22.4667 12.2446 22.1616 12.5394L19.5001 15.1117V18.7501C19.5001 19.1643 19.1643 19.5001 18.7501 19.5001H15.1117L12.5394 22.1616C12.2446 22.4667 11.7557 22.4667 11.4608 22.1616L8.88852 19.5001H5.25013C4.83592 19.5001 4.50013 19.1643 4.50013 18.7501V15.1117L1.83864 12.5394C1.5336 12.2446 1.5336 11.7557 1.83864 11.4608L4.50013 8.88852V5.25013C4.50013 4.83592 4.83592 4.50013 5.25013 4.50013H8.88852L11.4608 1.83864ZM12.0001 7.25013C9.37677 7.25013 7.25012 9.37678 7.25012 12.0001C7.25012 14.6235 9.37677 16.7501 12.0001 16.7501C14.6235 16.7501 16.7501 14.6235 16.7501 12.0001C16.7501 9.37678 14.6235 7.25013 12.0001 7.25013Z" fill="white"/>
</svg>
