<svg width="30" height="31" viewBox="0 0 30 31" fill="none" xmlns="http://www.w3.org/2000/svg">
<path fill-rule="evenodd" clip-rule="evenodd" d="M24.4158 7.99297C24.7312 7.67757 24.7312 7.16621 24.4158 6.85081C24.1004 6.53541 23.5891 6.53541 23.2737 6.85081L6.04418 24.0803C5.72878 24.3957 5.72878 24.907 6.04418 25.2224C6.35958 25.5378 6.87095 25.5378 7.18634 25.2224L10.4546 21.9542C11.8737 22.6088 13.4983 23.0361 15.23 23.0361C18.0489 23.0361 20.5841 21.9039 22.4108 20.5019C23.3254 19.8 24.0758 19.0204 24.6023 18.2617C25.1188 17.5175 25.46 16.7349 25.46 16.0366C25.46 15.3383 25.1188 14.5558 24.6023 13.8115C24.0758 13.0528 23.3254 12.2733 22.4108 11.5713C22.1194 11.3477 21.81 11.1309 21.4843 10.9245L24.4158 7.99297ZM18.5991 13.8097L17.4168 14.992C17.5681 15.3083 17.6529 15.6626 17.6529 16.0366C17.6529 17.3748 16.5681 18.4595 15.23 18.4595C14.8559 18.4595 14.5017 18.3748 14.1854 18.2234L13.003 19.4057C13.6414 19.8286 14.407 20.0748 15.23 20.0748C17.4602 20.0748 19.2682 18.2668 19.2682 16.0366C19.2682 15.2136 19.0219 14.4481 18.5991 13.8097Z" fill="#00DBDE"/>
<path d="M15.9609 12.0644C16.0447 12.0798 16.1313 12.0549 16.1915 11.9947L18.3205 9.86566C18.4529 9.7333 18.398 9.50835 18.2178 9.45757C17.2749 9.1918 16.2718 9.03715 15.23 9.03715C12.4111 9.03715 9.87595 10.1693 8.0492 11.5713C7.13464 12.2733 6.38421 13.0528 5.85769 13.8115C5.34121 14.5558 5 15.3383 5 16.0366C5 16.7349 5.34121 17.5175 5.85769 18.2617C6.30975 18.9131 6.92686 19.5799 7.67119 20.1997C7.76916 20.2813 7.91293 20.2732 8.00308 20.1831L11.1881 16.9981C11.2483 16.9379 11.2731 16.8513 11.2578 16.7675C11.2145 16.5305 11.1918 16.2862 11.1918 16.0366C11.1918 13.8064 12.9998 11.9985 15.23 11.9985C15.4796 11.9985 15.7239 12.0211 15.9609 12.0644Z" fill="#00DBDE"/>
</svg>
