<svg width="30" height="30" viewBox="0 0 30 30" fill="none" xmlns="http://www.w3.org/2000/svg">
<path d="M15.2308 12.8626C13.8925 12.8626 12.8077 13.9474 12.8077 15.2856C12.8077 16.6239 13.8925 17.7087 15.2308 17.7087C16.569 17.7087 17.6538 16.6239 17.6538 15.2856C17.6538 13.9474 16.569 12.8626 15.2308 12.8626Z" fill="#D5DDE2" fill-opacity="0.5"/>
<path fill-rule="evenodd" clip-rule="evenodd" d="M15.2308 8.28564C12.4116 8.28564 9.87632 9.41791 8.04943 10.82C7.1348 11.522 6.38431 12.3016 5.85776 13.0604C5.34123 13.8047 5 14.5873 5 15.2856C5 15.984 5.34123 16.7666 5.85776 17.5109C6.38431 18.2697 7.1348 19.0493 8.04943 19.7513C9.87632 21.1534 12.4116 22.2856 15.2308 22.2856C18.0499 22.2856 20.5852 21.1534 22.4121 19.7513C23.3267 19.0493 24.0772 18.2697 24.6038 17.5109C25.1203 16.7666 25.4615 15.984 25.4615 15.2856C25.4615 14.5873 25.1203 13.8047 24.6038 13.0604C24.0772 12.3016 23.3267 11.522 22.4121 10.82C20.5852 9.41791 18.0499 8.28564 15.2308 8.28564ZM11.1923 15.2856C11.1923 13.0553 13.0004 11.2472 15.2308 11.2472C17.4611 11.2472 19.2692 13.0553 19.2692 15.2856C19.2692 17.516 17.4611 19.3241 15.2308 19.3241C13.0004 19.3241 11.1923 17.516 11.1923 15.2856Z" fill="#D5DDE2" fill-opacity="0.5"/>
</svg>
