<svg width="30" height="31" viewBox="0 0 30 31" fill="none" xmlns="http://www.w3.org/2000/svg">
<path d="M15.2308 13.5769C13.8925 13.5769 12.8077 14.6618 12.8077 16C12.8077 17.3382 13.8925 18.4231 15.2308 18.4231C16.569 18.4231 17.6538 17.3382 17.6538 16C17.6538 14.6618 16.569 13.5769 15.2308 13.5769Z" fill="#D5DDE2" fill-opacity="0.5"/>
<path fill-rule="evenodd" clip-rule="evenodd" d="M15.2308 9C12.4116 9 9.87632 10.1323 8.04943 11.5344C7.1348 12.2364 6.38431 13.016 5.85776 13.7747C5.34123 14.519 5 15.3017 5 16C5 16.6983 5.34123 17.481 5.85776 18.2253C6.38431 18.984 7.1348 19.7636 8.04943 20.4656C9.87632 21.8677 12.4116 23 15.2308 23C18.0499 23 20.5852 21.8677 22.4121 20.4656C23.3267 19.7636 24.0772 18.984 24.6038 18.2253C25.1203 17.481 25.4615 16.6983 25.4615 16C25.4615 15.3017 25.1203 14.519 24.6038 13.7747C24.0772 13.016 23.3267 12.2364 22.4121 11.5344C20.5852 10.1323 18.0499 9 15.2308 9ZM11.1923 16C11.1923 13.7696 13.0004 11.9615 15.2308 11.9615C17.4611 11.9615 19.2692 13.7696 19.2692 16C19.2692 18.2304 17.4611 20.0385 15.2308 20.0385C13.0004 20.0385 11.1923 18.2304 11.1923 16Z" fill="#D5DDE2" fill-opacity="0.5"/>
</svg>
