<svg width="30" height="30" viewBox="0 0 30 30" fill="none" xmlns="http://www.w3.org/2000/svg">
<path fill-rule="evenodd" clip-rule="evenodd" d="M24.4158 7.27862C24.7312 6.96322 24.7312 6.45185 24.4158 6.13645C24.1004 5.82105 23.5891 5.82105 23.2737 6.13645L6.04418 23.3659C5.72878 23.6813 5.72878 24.1927 6.04418 24.5081C6.35958 24.8235 6.87094 24.8235 7.18634 24.5081L10.4546 21.2399C11.8737 21.8945 13.4983 22.3217 15.23 22.3217C18.0489 22.3217 20.5841 21.1896 22.4108 19.7876C23.3254 19.0856 24.0758 18.3061 24.6023 17.5474C25.1188 16.8031 25.46 16.0206 25.46 15.3223C25.46 14.624 25.1188 13.8414 24.6023 13.0972C24.0758 12.3385 23.3254 11.5589 22.4108 10.857C22.1194 10.6333 21.81 10.4166 21.4843 10.2102L24.4158 7.27862ZM18.5991 13.0953L17.4168 14.2777C17.5681 14.594 17.6529 14.9482 17.6529 15.3223C17.6529 16.6604 16.5681 17.7452 15.23 17.7452C14.8559 17.7452 14.5017 17.6604 14.1854 17.509L13.003 18.6914C13.6414 19.1142 14.407 19.3604 15.23 19.3604C17.4602 19.3604 19.2682 17.5525 19.2682 15.3223C19.2682 14.4992 19.0219 13.7337 18.5991 13.0953Z" fill="#00DBDE"/>
<path d="M15.9609 11.3501C16.0447 11.3654 16.1313 11.3405 16.1915 11.2803L18.3205 9.1513C18.4529 9.01894 18.398 8.794 18.2178 8.74321C17.2749 8.47745 16.2718 8.3228 15.23 8.3228C12.4111 8.3228 9.87595 9.45497 8.0492 10.857C7.13464 11.5589 6.38421 12.3385 5.85769 13.0972C5.34121 13.8414 5 14.624 5 15.3223C5 16.0206 5.34121 16.8031 5.85769 17.5474C6.30975 18.1988 6.92686 18.8655 7.67119 19.4854C7.76916 19.5669 7.91293 19.5589 8.00308 19.4687L11.1881 16.2837C11.2483 16.2235 11.2731 16.1369 11.2578 16.0532C11.2145 15.8161 11.1918 15.5718 11.1918 15.3223C11.1918 13.0921 12.9998 11.2841 15.23 11.2841C15.4796 11.2841 15.7239 11.3068 15.9609 11.3501Z" fill="#00DBDE"/>
</svg>
